<mxfile host="app.diagrams.net" modified="2022-06-03T14:08:11.073Z" agent="5.0 (Windows NT 10.0; Win64; x64) AppleWebKit/537.36 (KHTML, like Gecko) Chrome/102.0.5005.61 Safari/537.36" etag="ym2kEeDo_F-G3D4Mf5Kk" version="18.2.0" type="github">
  <diagram id="x17xbJqW4DfnTneC2RcX" name="Page-1">
    <mxGraphModel dx="965" dy="597" grid="1" gridSize="10" guides="1" tooltips="1" connect="1" arrows="1" fold="1" page="1" pageScale="1" pageWidth="850" pageHeight="1100" math="0" shadow="0">
      <root>
        <mxCell id="0" />
        <mxCell id="1" parent="0" />
        <mxCell id="6JvuclC4c8mgC4JMFCXW-1" value="Quản lý phần mềm &#xa;du lịch thông minh" style="shape=image;verticalLabelPosition=bottom;labelBackgroundColor=default;verticalAlign=top;aspect=fixed;imageAspect=0;image=https://banner2.cleanpng.com/20180309/kyq/kisspng-software-computer-program-icon-computer-positioning-vector-5aa29652ed5594.3308873415206047549721.jpg;fontStyle=1" vertex="1" parent="1">
          <mxGeometry x="480" y="170" width="112.6" height="110" as="geometry" />
        </mxCell>
        <mxCell id="6JvuclC4c8mgC4JMFCXW-4" value="" style="shape=image;verticalLabelPosition=bottom;labelBackgroundColor=default;verticalAlign=top;aspect=fixed;imageAspect=0;image=data:image/png,iVBORw0KGgoAAAANSUhEUgAAAH8AAACNCAYAAACe56UBAAAAAXNSR0IArs4c6QAAAARnQU1BAACxjwv8YQUAAAAJcEhZcwAAFxEAABcRAcom8z8AAIyfSURBVHhe7b0FfFVX9j3OWN2NlhYo7hAI7kWKOwGCl7rgBA3xhLi7IEET3N1JQtxDPEES4u7C+q99X1KCdKadaWe+/X9+l+6+vPeunrX32mufc+59zfAnWh7V1OFRZQ0e1T9CcHYath72wt7ga0gpzAVqZQWg6tEj1NGqqqtRz9eK2hrU1tepdvD/lieWPxX4sjyqqcejukeCMxxunMTrBoug7rUFW096IyU3W7USF2W9+npUc836hs/+3/Lk8qcBX8B+xEh+VFuP+ioJc6C4ogLfeNviU4cV+NjqOwx13ozd4TdRJXDLf9W1CiH8P/Cfv/x5wBc6ZyTX1BLQmlrU1amo/GxcOHparMBAD230t1mLgZaroXfpAIrqqpXv67iuOM7/W55d/lTg10j+fsTI5/tqgi+5v5TQrjrmhe7WqzDIUwed3dejs9VPMDi/H0VcH6R/FRGotIDCHrTnLY2fKsfiO2ENHkXRDKIf/tUi5yVWx3P8Myx/upzfdBEWEHAD0hPQz3UL+rtuxUAXbfTz1EVHy5Uwv36qYcV6BZCqOrKGOM8vgCPwVnOdqppqvnKb2iaA88+qiipklhTjflEhHuTkILOoCFnlpShl+mlc6rlNrTjcn2D5U4P/iADVCAPwb6tLJ9CSEd/feQsG0AHUnDZg8LbVOBUX2bAy/6tlBFMzNIH08SKRTSFZy+8bl0c1j5Cek40T4f7YfMYbcw/bYbi7Dk0PfR03kmn0MMLbGNP3mWH1MQ+ciQqi4zDNcLs/w/KnBl9QrKQOENAyCwoxZrsxuluswjCCM9BtK3qar8I4N0OklRU2gE/Kpwh8HjSC/SPheVotS8pjadFYfM4LA3fooYv9GrSzXoEurhvQx2EDgd+Ers4b0Mt1M7pZrUYr828w54Alrty9gwqmojran2H5c0e+NLREvzgAF+/A6+hBwPvZb8IwV12o229ER6tVsL56TKX6uf6jCuoAbvO8RXZzJjEKS/c7oqv1asUGOW7BIGdtVTpx2owhLrroy/Si5qGLrpZrMdHZGMejbqNSyfY8p4pa5Th/huX/DvjSXkr48VWouYYgPaKil/xMk5pdEWzKylzk74aor5HtuBSWlkNzvy26Oa7HUIctGOK0Fb3sNmCMhz5iinMV0faomvsk+LL/R9y/VBCypBflQfvsAajZrUcbhzUY7KaDIc5b0YflozjAYLvN6O+4GcM9DdDLei36WmthC9e/U5ivbE9lqDoX7q+8nuf+J1j+b4Av4AnG/FNUdgXVdXV9NdtT9a+WjVlVzdiS3j0RYUpDi8l2j1CvlH4qEM+RrnvarUUfp02KAwygA7SxWwOvoGvK9xKVtdQJdTVVFHWVymeRd1MxeYepwhL9nQi0RDptEMEfKJHvqoP+TCO96QgdXbUweb85LqRGK5pDFulIqqIp6kOivsGh/q8v/yfAl+gT4GURYCSSlWBu/FCWJg4iWbuCCbqynn/xA6U0YySLiU+sP74LLa2XY5izDkZ4GaOD7Vp8vcseZVIdEJxKqnkBS5bTd0JJ41vQ3ZKlIql9IAWj2ADaCBcdDHXXhdoOHXS0WI5xdlvhffsySri9slQTdLKSlJ2KQ9HqeS3/j/Z/w1LJSC9X1FaTRVAUrBjp1UwDYk84Q8PS9CPRALJEZ97HYBsKMxeWf4z8PqTrEbabEZb7QPm+sWY/FR+GXl7aaO+5BcNtCTqjvhH8Rgfo7bwJfRnx3x/2RFBKkrJddUUdyrgLOUXlBCTQG4JdXv4cpP9/TPDdLcnH5fRY7Iy+Dp0L+7H8qAeWHnDAnL1W0NhnjW98HbD+5HbY+Z3E4fhgBN5LRkVpWcPWqqUx6NyvnUVzyx8V8Ic76qCP/QZ4h91UfcnFPz1BKdc6O2hhhIMuBjnpEHAV3f9sdIYBthup5O2x9KALZnuZY+puM8zeY4EffF2w4cROmN8+jX13AuCXkYK8qsf1/p9h+WPBJxDSF68gokSIdLCQokmPjZFSzNx76l4ctM7vxwRPIwylku7Jcq07RVV3ey10s1uH7hRw3Z03ohOFWCc7qnCb1ehhs4bgbILGHivoXTiIGynxqKxuiDnu/m5pMaaQ8tW5j6Ei3Gy0YH/xpPJ1QUkZpu+25HGo5p0IsiPzO53kafAHiNCTnG9PsUel34ss0MVhHZmEJZ/VWvSwXoP2tqvR1vxHDGZJOGHXNqw9sQunU2KRV9HglLzuOpaXct311AhKb6G0Az9T5bb/3fKHgi+Yl9VWMzWqcrrQcuPlllbV4Eh4AOYesCWQa9GZQPRw2oh+FFZDmasbwZAySzGCJAJMEWEKOBRgrLm7EIDeVN5DbTZhka8zHIKvIqdaFYE3EmKo9teii5MWWtmugvFpX0VPGN44wTJujSLuBihU/yToT9uABpO/lbJP3rvIecj5aCtVQBcySFsKyx5W3K+lFiZ5m2J7wCXklJQo5yKLXHtlHbUK26OS56Gkjf/h8seCTxNpJIKuviEqxSGu3InGbJZkn9qtZISvwSCHTWzATYzS9ejrQAcgRT+df59n0vDDCMIwDz0M8NRFe5tVaGO5HDM8tuFkdAhsLh5HL5t1SueMustmjNxhhGn7rTDEbiP6229UcvrP+2oi9n6rjaQwHEzG6uPCa6ADD+a597Zeh5ZMOyO9DOBLJ68Usak0gKoNpEKo/f9z5CuLItxUF5mYm4l1R7ejh+16dJHOGDbSCHcDpaYexMYbJuqaNsid+VcB458Ytx1ElhjAdZX6m0wx2oH7YDR2Zapoa70KXUn5IzwNMdlBn+vpotsuXfQmOH15/MaIF9AHs5QTe+YYv9KkP0E5b15DX6aHPnbrVZ1Dbrq81nVMXVpY6uuEmKx7SjsoJar0/0v6+x8ufyj4jSNoMr5+KjkcE730CcgaqmdSJtX3cHuKMSddllN6GEwQhtlTdTvrYqCrrhKVP0fjL7EAG1rWURqdzCGDO4MJxBAKvEEeBlT7OgSD+/DSwxidlZiw+jt8ZrMZ3TxYBRA0JY2QOR6D/3jfgxTbzL8brclxn/h8M/rRhtC5hsl+6IjK9uLIdjy2wxb04ec9qRdGuWtjX7Sfiu7pAI/+/wy+wm9cHPxPo43hMnxq9jX6MP/2IrV3Y1RKhHaTfG+zAp2sf+Lfa9CdUdnZci36kq6HMEqHENCBbDh1Rs9gB0YpG3cQ3yugK7ZJ+X6gK78j/Q9mtEnHzOCGfNxXeur0lmJRtzZY2PFDTFo0Fn09maebRG6jDWBqEDAFdBF6Qygyh7isp2PyMzrYABd9RjP3RxAbbTBNWZ+OOJSgD+V+hlCI9nFahW7Oq3ltq9DFch3F4Xp8Qj3wvskKuPpfI+3XEfz/bVH4h9O+dHwcoAjTv3AAphd8YH35CAwouIyuH4PhNZWZXD8FvUtHoXf1MGyCT8Mx5DR+uHwcY3a6sPGtMHKnE4Z42NLsMcTTEUM9XWgezPX823Ubo9ZIibTH0dgAKJ1jAFll/vD+WNL+bczr9jpmtvsA07SWoT/Z4GfQCdpgMs4INysMdbNl2nFGf3cPDHTzwBA3FwLugoHurujv4UpnciejeDxhQz1dMcxLzsmV5+eK4fz7u9OH4BTiB6eb52B5nddFc/E/g60XfHHg1lVU/B8oC/9YwUfgpddNRJ/4eGMX7LPL488fltTBJDAc4/YcQT+HHehp5Qo1By+oOXqhq6M7ujnsRE/73VCz30m17krA6BQuZkwBOlxfi59tJKCPKVpy/ZKJI6DR413M7/4Glvdsj8/1v0ZvD4nYxzQ+iKllMPfR38kQai6W6ObqwOpjB3o7+qKX0wH0pHV33o8eYi5PmcNudHfwpsnrbrLaLox0PwDjy7eRmte0H0KqnVpWP48oAOsphP9/LPiknq1laaMagBGZy8tnrhOo5bofX/sjxOUVYkOAHyl5DzqY7SJNehNkb/Rw3M0G34uervsICP928iGl7kd/V4lIU1KyAUGUKCYtk3pVYDZEvkQ1U8F4w28ws0sLTO3wFhb+pAE1Lx2o87vGsk1lm7k9yzTn9fyOoo37U3M2Y6524zG3ozvPo6vjAeVcerjwPH42nqOLfPbYejrtRTubXXjLwRkdd3iQ2W4jPb9Udak1daiuq1L0noxb/S+XPxZ8mkylVqGtKm8qHsloGnmgocxJLy4l9Qcycg/gI1N7tHH0RC+C3MdlD7rYeqGbozfUPA+gKxu6GxtezXk3+rk4M7dLlbCeSl+U+0Yl/4toEwEnYDa+9uPnfSxXYNn0WVj241Lm6Q3o72ZC4KkNnnAUagTZnjaEKUTGBQa76qG/pxH6eVhAndTfm+fVk5Hf02kPX+mcTnzvuBe9XHbRdv5sPZ35ar+X2uMA1Gx34RNrd/Ry2wH7G37ILqlSrrtegqBGyj9V34fiB8oI5s8R8Ycvfzz4/F+dMgeuBlWSAgR46v/isko4BgSij+cutLJ1Rxe7nVBjo/am9XCShvUi3e7i6z5GG+nUmQ1MSlV3tlKE2WARY6LkfwZPZVLCCfDDPCjO+NqbwnGow2ZoHjoHjSPnlM6ZYSz/BhHcp7cVB2g0YYUhrESkchjoyvLQVZ/n54RuLjvIQGQCMf7d03kPz3P3L5oaGaMXr6mdjRdaWblh6K7dcI4MR5n0e0jb1NaQBWpQy7apqqtgESCt9t9Z/ljBJ9fBa6yWIdlHlSqvprNfik/D5zt3oIW1Azq6MZ+67mcDeaMXQX6i8Rz30Q40fOdO4C0YySwDXaQjheA4SvQ2BU+Vw4UFhkjfAYHux8pi7A4rLDh2HhqHzlDQmZLaNzXp4Hly28cmCl7AZ0rh8fq5suJwNWAEW6Cnizsj/iAd04d/b+f50TGbnneDKczQcE09HPfQafajPR3mUzNbzNh7BKcT0hUGEE6sry5Wev/+m5ngDwVfhl6la5foK++zqmux5sIltLX3ZCR4ojUpvbM9gXdgnmQjPWGMFgG/N9fp4+RGVc2Id2VOJxCDGPXS/asajHkatMemSgVbMcVnNzRPXcScIxcwhjm4r8Magv+kMHzWeCzuf5CTHo/HUtJlA4+v6n5W57n04XnJ+Qn4PclKz5x/ExPm6kPNMtj1ENSsmb5s96GFzW50sPOC/uWruFchXcDSTnz577H+H037VLVVFDoUe/G5BZhz4DhaMUo+lQhg4/Wnald3khzJyFHokTQpoPO1O/OofN7byZ2RakkgmYtZPw9RVLkArzIVTT+Ofol2oX7p9RtCoEZ46WPq4eOYfeoc5hy/gqn7j/H71Q3gP7nt433IawP9Kw4gDKBKAUPkvSu1hJseqwJWBAozMe/znH/JhAEGuOzDAKatTo470c2dgtXFh995430bZ4zacRBXUzKV9vpvov+7ga8UMdJpUU0ho7A7Caye4oaRf+XufXzmvh0fWruhi6sP+tkxGiSv72CjuTNvOpA6JUroCF3ttjcofEaVsweFnwUbjuKrIccPddbHQBmCFcHG3N/Pca0CVqNyH+AoeV+U+0bFAcbsssLsE+cw4yhz/tGrmHP0LIa6a7Okk86hx+DLqJ1EvOxX3VbVcTSYTKMCXw+DHfVpfFXAFxZYTzYyIQN48jwbxF+D4wqoaooWoDDktfS0p3ils3dy3YU+LFX72m+HmqsXuvPa1dx80J4s0NPBEzrXr6C4ouFmE6YA6QVsrIikp1SqJ+VvmjiKMi1Nqig2dQ3bWQS18iVNZhU1bPqLy+8a+TUyu6aO+UtOnIcuqq7E3uhYzN5zGCP2H8cQz70ERS6YEe7KBmKZJNHdg43Rmwq5t/MOdLVxp0ii8GPj9XaxZZ6VSRUbMEgBVeiY0edGIKjK+zqs56vkd1WpJ07Qz15F24NctQjiRkzcuwPzGfUzD12kXca8k6cxcrt1A9iPo12heaW3UJ/70KFTreM+qA0IthxTbBD1hjjcQBceQ9KBI4WjozGp31W5DinxBHABvzdLPjUpUR2Y623FAfYyXfjyc6kWpD/Ai06+Q+lLkOqgGxnxYwrCLw8dxcPCckFb6ReRvgAFT76vrZWZSw3VAUW0DA/LnEG5x6Car8oMKNmmlt/RGRrnJ/7S8ruCX0dPLYX0XNUiKasEWy4FYeyRY5hx6BQWHTqLxUfPYPbhk5jsexZTfM9gso/YaUzcdxxTDpzieucx/SCj9PBpDPSyYZ6kYGOeHSBRSuodwKjs50gGcBdwNxB0I4K7i7X+Nka55HcBUZxAHGY9t9HHdN/9mHPsHGYfEfDPY+6JM/h8txvXa8ztKlMJRHEwbXy23ZSfiXPJpE3Zp6rsG+ZhyFdhC9mGDkEHGOhkyBLQmo7sypSlEn49hdUk6hXje3Fwx13o2tAR1MNpP9/78L0wAj8nK3QTh6DDt3L0wAjPHQi9l9HQqMKeqhhW+k3oAAKqOIV0oskcAaXzrGHwTKanFVdXqOZRNGz3S8vvm/NFqtIu30uHxqkzmOh7iYBexFzf01hAup11/jwmnzhN6r1ACj5PQAQUGp1jNp1D8/h1zD95CTMP+2CIB2tsAizRqKJxXSp1RhqpuI/dWgxzN+G2vpiyz4cASPeuSuApESp37zhqYaSXBY91kiXeBToAwT/IYx+j4x3gNgKeRPvPDqCqEORYw1kKjtvtgCGuxtynKuIFfGEYVf+BrK/SBGL9WAaKCBR9IlHfXYCknpH0pUbtosYav6+XFwZud0cfprKe9mQ/O7IEHaEnNUAvmjiOmqQPVj/dPPZi4qnjOJ6YoExjE+5vHCRT7jxumBOgtHel6rWKqwXdS8H1mDDVbelyf8J/M/LlLA7GxmPGAUY0G1yDoM71OY9Zx05h+okTjMKzmOl7gTlYPjtH43s6xexjJzGL0T7nyDUFnDHeTsrAjJgobolGZRSOQEgP3DB3A0zzOYIFJ/0wersraXojhnmporQ/Rdlgt81Qt1+Lsbvs6VCi8q9g3omLmHHwJJ2Bx+axpM5XpREBUJxGFfX9nNYrAE87uAvTD+1Q5goMdafO4PrqduKEKkdROYAqVQwiO/V3MWaqcqFW2aXk986i6u3IBM7b0ceDed7dWmGmUTvs8PmunRjlsQ8Tdh/hcU5iqi/b5tBJxWb58hxPXsWUo5cwdM9+OISEU0dRBzQBUui+ceZwYU0VDsUHspR1RD+z5fDxu6x8rswW+qMiX8hdKAc1Mj7F86OH2gaFYMohUvjhC5h/+CI0Dp5ghBPkE2cx/cgpaBD8+YcvYZawwJHHNvvIacw9dlmxGYcOsIEFdNbyEnFs1EHONIqtPo6r8ZmHEcYfO4rFx25xn0cUUCQtDHaTWTkE34G0TzDEph7YQ/B5vMMi9ngeBF2YZs4xlnw7HRV2UHoIqeQHu0pK2aCMDfRz2MLIt2d14MM0tJvgG6KP7TruX+YOqJxQYQHqjn4OIgzJGu7S/2DM8/XE6J0nMWEfjTpn4oFjmHzwFB3ak8dhhUHnEQE5ZocNNI75Yj7bRvP4Zcw+SKfkevPYFnN4jtPJhHOZpsYeOgab4ChUiBCsLSHwbPkGTC8+SCKr2qOr7Wq8a/4VNPaaoVhmFhN0GVD759D/B+DLzqVHStS89FK6h0ZgEj14FiNrDht6tkS0Qut8PXxW6V2Tz2YdYd5XAG9ih86xEa5i3vGzmLzfUwFhANW2imLZqKR8GZfvS6A1D1JDXA7BXM/dmLZ5OfqJAFMYQhW9Ar70BQxniTfz4FHMPSq5nmmlyfEE/Cn793L9Dczr67iNUDorCGX4mMex30x2MeK5eGPBqYuMTi9GvXQhq1KAOOcQNwOavuIQkhJEHMqdQiPdnAnkBWiSaeYdv9Bgl3jcYxjpaYneFKEiGCW9DHYxolMeIINRiB67zqi/wHNVtY9Gw7lOp41kQFneCkR+hXQNM6dTVNv4n0c/6w3oZr2WJfNm9DZZjjNpUSpsahq6z/+oyBch8ki5sYLAB4RhlO8hzCCdK8A3nPisw88B+nl2iA0kOfnQIYyiEhcABrmohlxFdfd3otonwJP27yM7BGLu5RtYNnEyPl84Fv09ZT0BTWVS6g1kWThqpwX3S0ahvlBF/OPjid6Y7nNImZMvFYMIN8n3wzwMuK1Es6qfYDyFoaSN2UeOUoTuUu4B6EuABXxxAgFfTJyin8MG9LLSwjA3Kx7vqMI0jcebRefXPHkeU3320tEMlPUlfajbqVhH2GXRaTLfkasEXbRQk3NlG845fh7DfE5B90IowrNzsPqsFz61/In7YfuwbO1uuxY/HnCmDiAaZGCheyU1UCv8s+XfBl/uYBcxsiM4Ap+RfifxBJXoVi72zM/W9EJ+0SgK5/CiJ+/fyUZXUfBgVwOlFu/vpEUBZkJV78Wo577PBWDmuu/w5ftvYqThV+jPnKzKwY/zdn/S6/g9LgT+ChtPouhJ8GdLA/PcRlLVq9uLYxFAoW5XIxVzcD+yD3k/5+hxnttFOsEFgrejIeLlmAKgMIEKSLE+EtXOeqxeXJ8Av/GYc/g6aR/pn87TT8pUN21uo4W+dluY7vZS7FIPNbIlTVLiXJ7nUqaE6cevMhWcwuc7rNHZYQXZYys+4zl09tikzHKWqeMKLtX1KK+tJvj/ivR/E/jP7mxfdBRG7t2DKceZUw8S6IYIU4Bn1M2kPb74f2KHLikePn4PyyXr9YrAks6WfszHkk8n7dsBTQIw69I1zHVyxYIub2LeqDYYbK+HAcy7TcEXkyiccoDbHLvBfZ8hEE+dBzXAPOqLMTutGX0beAyhbwpG0r+67Ra+FypnZLJRJzENLTjuh+n7rihl6lRfdzqNMZ1jC4+zWUkRkveHylxE0n9fezl/QyXaVca2YKqb4aO6zjnHD7MKMeW1ydwDqVCENSgynQ24HpmNbSkaReUE3E6qk3OXsYhsMtzLHL0oMGVsQraVTq/W9quhe9pHwUOeQ1RfU4ey+lrVmMHvEflCH1XVVaipq2QaYYLnPk9lF2KSz3GKmRMqauRFPuvtv86EmjWOHmN9bcPGkA4c1s42q9CLDTt59y6Ku/OYwdy94NAJzBnfD0tbvYCpGp9jgJeJMkrXFHgpBWV7DeZYSSey7znc/oljCvhHr2Gar3eDvlB19QpriCn7kprfkTnc01zRIhqHr2D6gVNYcOI6HWsPBrtvYDmqxWPpK2whbCAOINsLA4zb40WgeZzj13htUmGcUI4799gVTD6wHwOlD0NJZ8IiMvq4ASPoVJoUmXN9/THnMB332CHMoXaYc1pY0YUOt5b7lyltPDemnZ7WPG86akJBnio2G/L8P4f88fLrIl9SCUuHyupK5e/Y/Dwq96OYzPpdAJdOFA2lI6VJA/8Gm3v0MhvnKOt4I16cjNGzURhVY3e7Y/bpa5hJMTT31BXM+XIpZrb5O77o+jYmLpuNPjLLtwnwKvC1GVmWpOtTVM8E/nngM6rmHb1KZtpP8ETAqeYDPL2vASzlpD9B47BQ/yVGL0tXlmCSRqb67uJ5ysRNagZZlylApQH0GMmqkk7j6EmCf13J4zOo2udKauS1TjlwCJ+Rvvtxe0kfKuGocuIJu22hyWPMPMBqiSXyvJN0lr17mfrMFCeVUUrRG+qsbnrZbITNlTPK4KkI79+6/ErwRUCodl5aUYsV587i84NHSJ0XMHnfUYXahOJ/Nc0/YRQ0rO9n+LJsowru57iSr5sxfb8XG/ocxh+/iVmnb2CpmQOmdX4PS9r9FZpqLTHI6FsC0zgho0HsESwBc/weNyWNaLCslLKpUTk/NonAy4rAFEeRO3OUbtsm+1JMRhDJRFP27+d+RCecpoqX/TIF+V4iiN4Y6inloaobuFEEDuI5DHXfxhx9WIl0ofEZZK25J1Q5fZrPMUzx2Ue1b8LjbCWwRgprSAoZxPQz5YCncs4zmes1jp3BUFcr6gKVc/S1ZwnMc1OTvgVnI0a96qaQOhkr/43LrwJfHoSEapV6dAgOxihvH8w+wYYlOKrIP0+vlgt7upF/nWkcvsqa3FfxbBmJG7fbg9FOmtzHBj8fgKW++zF36ABotn8dCzq8jm+1vsEQb0aC3NzREKVK9LFRBhOs6Qf3UoMQ4CMUfCL2CFpTB1DOmYwwkyXUOG83JVIHynBxk30pRvAlt0unjDjR3GOyn5NKXa5xmOqcpas4gGgAcbr+jlsVk237cbspvnt5HDIGz0XKXA2l/G0Qwocv4PPdLgpTiVYQ8KXKGMBq4rPthmQMYa6rZD9P7o/aRiaVKKlJJpvy3OhkY/dsh6V/IEqUku7Xkv3j5RfBV55i0bBTGbCRSRl+Kfcw7rAPpjH/LmTDygVNlx4pmSjBBv3V6v5po9qfeuCgQm2feztRLHK/ZJE5bOAvzt3C9B/nYUG7N7Co3dtYPm0sNvmdZm1rhH4sz1RRKqUhG570PYS184zDB3mO1BHMt6KWZ7LBp8u50glmHj7F8z2LBYf53cGTmLLPAwMpuIa7POlIqn2KmNuIzzycCeJZzDshlQOvkSJSdICwgebxG9QOO+kAJkrZKLW+RLA6RefE/TtUDMMInsu0qOpvEG0klRHT2SEfpT9B1lemnAv1OwhraKvU/6mLdEojnouMPaj6FITtetmsoRaxUoaqRzFojqamKiW3dOcq8a+k/n+d+58BX7mfjlZD1SgDBvXyPDvmk7sVFfji7CVMOqTyYrmI5wL5b5iiiJVo4PsGW8hIm3L5Gr62dccctXfxRYe3MU/tQ5gd9YV2RBAG2EqEyeibjMRJmSaPYVnNnOnAdESxd+wIZjHvzyQ9z6FQm0cnnc9zn3eIDc/XiUcp3Bh9Y0j9ai7GGGIvXbgqR3psDb2HFHUCukwGUcB/4vzJTgevKOJx5A7pAdwIdRtV9I/eYY/5TFvzpOSkoH1yO2odBs0ECloZSRxEllGNKm5VnGH8PmvMPO6qMI9Eu+gLeR3iLp1JWsr4xwQ674T9J7CULBGckUlhVocKSc9C1NX/elbQL9M+HUC5rYg74b5gG3gbo/fux2wKEKlXn22E388kX09iZM3ksRZNGIHFnd/B9LYvYIXWd3CLT8Ga4AClM0edDS2NIg2tGpHbhEl7d2CB70Us2X8ZmgcvY/JJKmVG+eSDNwj2VUw7cQ2zz1zAshN7sZz5e9WZ05jgbY6edo05/2nwmWNdDX4G/3lOP91HlDz1wMkTpGwzOuQ6KvJNGOZmxmu5oIA/R9LYU9tJ2px1+DBLTjsCTlDJHCqgZZBJvyGd6CkOIMwmJag4++S9zlgqbHvsKoXwTWqI41h//iwKG4CvrZUZVP9O5De8QvJ8g8i7/TCPeesIxh87SQ8nbSq185MX8nuaONec81cxaYsulrV7GYvbfwDN8V1hE+yHLSGJ2BIZjhEeesqDEwYwx0pniYiuYaT88ScO4PPTF1mf36I694fGyev46ZI3tl01x4HrPyL4+gSkXO2N9GudkHKrExKCusLq+FSoWTJtMOpUDtBokmP/Ffj8nAwzj0wy5/B11uo++GynCaOT5Z+rMZmH5anoAwq3J7dTbavJVDKN2kDGL/oyVQjQ4nQS/WIquldNR5P+j6Fu5mSuw3Tw8yw7b2IqU8pMapCxZDDfxEQFL2WMv4HB/9ny3MiXufWolefV1COHQs/gjD8mkiqnMopm7T/OEz7P/HmKDcILEJrm6ywRf08oa7lYlUknR2OfvjKY06ANGteXCFCNB6heNU4y1+87iZmDOmF+p5cxq31LmHk7wvZuKvTCU2EWGoaJ243QkwBJj+BQUqHk2xHuVtzfKeb3a5hz6hRMLm2B/7XPkOv3PgpvvYiC639H4Y2/o+TWSyi6+TZyrv0DNbeb4eDFoehpo4++SrlFkyFk5ZVlIMtO6emT85/bCH7DNSvXw79FVC4gS830ZV6nzfA9hlHbLckC26hfjhIsAV/KTdV1/2zSKcZ2nE3hKRWKOJyMXg4g+KrZxeKQ8io3k6ynI+hg0j5v7uuiUmmJQ07zPY4ZLCHHHTyF+QePIqGiWMFQBt3+BfbPy/lke+WJlUL2wJH4NMzef1Jp0MkHSW2KkLpIQcILIVAzj0t9TyagU4z1OUoPPIGJvLBJh0m3rLOn+dDklc4ziSc4g9/NP846lttP5ftpRynGRJSxEedx39N5UXPP+mHe9yvwTau/Y2LXN7B68QI4JSTCKCYKZpF3YBUWihnetuhNkOTmyH5yEwaVfz8vb3zPHOt21gKRt3qjyP8fyL3xFzy4+SIybr2CTL9X8dDvNWTwNcX/TWRcewFl119Awo32GO++QpVCKPD6e5gp8wUHuW1EXwqx/s7rsJQgzWKNLkBL542IRjGlR44CdRojXOr42Uwts0QDHNyFyQc8FPBn0SFm8fpnsh2k72HWIToRrbESmHFQ2oLRT90y2IHX5KSPIR4mFK+GGGahzfRhSLpfj892mGL+Sa7vc4WitiFgxBGlE+nQNYzbcwJWIcHKPFBlOh2xlBk9MpG28cllTZdnI5/f11M4yGr3ikuxggcbd+gYZhxgJPowqnzoCLR5csIHjmLm6TOY4r0fRn5huBSRhEN8tb12C5svX8LKKxewhqZ/9So8bgXiUmgcdt2OwmJGiQbTx2RuP+W4iD16Lx1oMS9qMkXlQu5vbs/WWND6ZSzo1wnWZ4/DLPE+jCLCYBkVDYvYGMw/6o0+pMWh2w3Qi9Q/yHY9fvI1x+2ApXh4+13k+TdD3vVXCfrrtNfw8OYbtNcVe8D3GTfeQ97tfyDF712U+r2ML/cshprcCGqnhYEUasOd1qHndi2MsjeAuss2aJw+wtpcIvc4y1CZh0CHpcmchDms5WcSzKk+p1lmqvo65tKJpedTJqcsPHMZi85cwcLTV5TRPgU0VjOqblyZa8B0cfQ4Rmy3owNTa0jZ6amPftvJRoqukfQmcxj2Y/4JGQC6ogSQpsIAKhaYxYpp3vGrWMbgiypvuEVMOmMJuHT1CvhPT+t6Ts4n7OIhXM83NQnfX7uGdbeCsN4vEFpNbOPNQKy7GYCNocFYfeUKrCMicSkpAUFJd5CQkoSHSYnIT4xHYfodZN6NR0xaLPyTw7E7MhRa10Ox+pIffrx4E8uvBWDFzavcRwBWno/Bj0E3sfTbGSzrXsH0Nm/CbMsGWKcnwiQsCabhETCLiIF5TAy+Pn8Y6owQNRmQYb4e7WaM0It9UXz7b8gIbIbca28i58onuE9gM/xeQiadIJOgK8bIz7/5MrICX0FSwEeouvkXbD81Fm3tjDDYRY/AM+qdN6K7M9/bbcEYLz18c/YERpOthMGmMV3NYINPZ8RNZeTN8JWIFlqXaKQGYH7XIKVP9z2MyaTpz71dMYYONdbbHhMo1qYe9KCzb8fck4dYzknHEVlPBO7BYxjhaoKB9usxjAw01GUL1N2lC1eLQnYnQb7KSD+JuSd8lepCbKrPLpo3Ju71pM5xwwQvG6w7vR/nU+Nwt7RIBarIfjLB091Az4CvPJSYSjGzrBImjDQ9igirmESYR7HRox+bRWQcLKLisC0yEjZ3YmHOdXWiE6ATlQCDiFiYcn17grQzMhouoRGwDiZwwVGwCOd2kfEwDYvFtrAYhcZ1Y8gWwXEwunMf+sf34cuub2Fmh79h6YhBcAgKhHFEPKM+DibR0co25jFxWHf7CsseYwx1Wos+lkaYvGMr0vw/QRbzeO7VD5Fz/W1kMc8/uEV6p2XeevUx+Pw7jw6R4f8qUv3eQ9mtvyDyejc28lb0djXDZ3arldyrzvedPTditPP3CD43EWvPMDp9JbdT7wjVSjnKdDedaXEe6X/haYlmH3y+y4VOZPhzru7rsIIstYIVgJaiTVRjCQSXDjvO24kpdBcd5ggFHBX89t3oxm27udHp3LZhkJMBRu7U47Fk5g/F7C43jPA0VsYTxKSDSkYF+1MUqlmvpT6hVrHdgIHm6zDewwhG147BLzmepXtD1Ddh/ufQvspDjmTdg0FwGEwjCE5wOLaFR8OkiRmFxsA4hOCFx8IoLAKG4eEwD4mEZWgsLMPjKcriYRASh038Xif6Dgxj78CAoBlGRMGY626LlPwdTaeR1zhY3UmBQXwIflyiifmfvIKFbd/ARldLmCY9YB5LgGFMILZxe+PgWFhEx0M3OghDd1hhOCOkrbMlTI5ooPT2i7gXRKq/0Zx5/n1kBDQjzb+Mhzfe+pnyxTJvvI77t99C5vV/4CFzftZtpgH/j/HV7p/Q1tFKebpHP1YSo5wN0JP19zBGXgG3i/Xvgh9OH8PiU9fww6Vr+I4VyZcUwfNlmtqBfRjtZceczdKMZZvq2UEiGhsHjKRel25g1SNoxHpb0xGYuoaRvYbTEaYf8Gbdvh2DvQwwSWsxZqxeAnXqmUGeRhjuQdXvvJkOpOp1FPUvvYNS4or1kUfb0Nlk/qHSze2hw3S4Ae2sV6KXHVPi0e3wv5uswrhhaSaeUFPDWp75oOqRIg3wkDnDmtGsH8YoJc1uixLAYsgEj015TzMOozNEMoqjY2ESFQZj0rrkZhNusy2Gn0fK+pFcN5wgC+gR/D6K2zCKxSLoAGQQy7QY6B3ei7ntW0CjzctYOWssnCODoReZQhYRhR+hsIV1WAh07iSS/qMx8fgJdLHXQm8KoltXB6CSQOYEMKcL1d98hxH+igr8JsAr4NMe+L1J4F9B1nVJC2+hiI5jd+hLdHQwQn/3DVBz2YDR9tsYgdqYvmMt7t18FcV0pqjb46Eb9QC2ERmwTorHl5dOYKSnqaLQ5XEsfezXKvMA+1G5i0n52E9mIxGogZ4EiCKyN9fpz8gfYE9ap2jt57UJgyWv2xgoPxoxd/7nWND2Xczr9hGmLZuIQcz9Mmt5qAw7MxUowBPw/iwNB8scQmUwTJ4xJOML4myyHstE6RTi/iR1dLNcjUE2W2B38ySK5fGwxL2Z5Hb55Ypairy6Ryqhd+MBo575VZcUbhgcCus4FYjPNdL74/eyXqPxvTjOL33X1MgU26gHVmhOw6yWL2Fq59dhtXc73GLjYRjGFBGbSieMhmlINJkmGFujIgl+JrZc8EQnm+WYun0LUm+0QInfG8hmCacCuVHkPRZ6z1rj92+wMmiGExcmoJ+d3ImjhV6u0lWsj+4eG/Gl90o8IEtk+/0VJQGvYme4B8yi07Dk+G6oW68h7W7AAAfW5zKLiOJzAOl4AOn4sfE7MoCM3feXWULSoSSTRsgSMh+hL48lZV4vVwNMpGNo9mmPRT0/gGa397GwWxtM2LhMeVjkZ0wBfb10MdCUaYn7kWca9abTyFNOetloYYDdJvSzpYPxtT9fu9MhetGJ1exXo5v1anTgeb5ttgxfH3TA/YIcNKMGZKKvxyP53RoiX1BVBYeYcGyOjoBxXBKMCL4Jo9WYjf9HmLCAbVI21u/1wdIOL2Nex9dJ/VNhxTSxjXneNiwRxqHh1AUBMA2NwlbqBpNAf7LBA4QGLcQc16VYtW8hqkNfRc7VV3CP4Kjy+2+x1+g0f0dkYEtMZbnX1c5QeermMM8N6MYG1vWdT5H4D2SRRaSKSIoYBe0of6y4ehFrb52j8L2EtTeu/KKto626chErLl7gutewMfAWNty+iR9vn8XUfTYYTmfo607q9tbHgu/nYF77jzC9XwvM7Po+Fn36Ieb26UFW+AG93Ddhlo8t1l3wpWA+ju8per88dxjLLh/H15ePYRmF3rIzB36270/6wtrvMg5GBcAn8Dp8QvywI+gSHK8cxeXkaDSrQ5X0CCjgiyQIyXgI3RBSawwjjVEqeVk3TOiatM4o/X2NKSMqFvbJqfhptiY02zbDtG7vws7XBwYp95g2ErEtiOkjLAr6TCkmoVw/OBIGYZHwCj2O8pBWOHFxJI6e6YO8K3/Bveuv4f4tiWSJ+t9oTAHZIS9i/b6l6GhrAbkLeKDrJvSw24pdJ8biYeA/KCKZMvxeRAmP4RXhSQe8TwZIhyXbxjwq/rlm0fAqotmS4taMYtksPhrfXzyBz7wtMZRibaTc/eu6gVGvhQUjemJxp48wQe1DLOrREot6tcLSNh9g0pyRLD3XY4L9VmgccITRrYvwSrkD51i2H9vRigyspFqaabTq1YSp8mT6fUH4mUW68JrVPyon+NXKHR6FhP8A87RBoOyAUUdhZxweBT2esCnBeoau/0OTfZrGJ0Pv1EEs6PIxpjf/G77/chocKf4s2FCmFILaFJMmZADz8FTqiQS4hoVifWIGzvmtRv6NZijwfwP3b7yNjOvvUOwxgq+93wDo82j+ly3n2mvM6X+B67mx6OBIUKj2+9jooIe1Ls6eG4Cs4BdYRbyF9IDXUHSzGcKC59IJmY4ofE1Y3ZhQ2P6iUauY00GsYqKwyf8yZuxzgrrVevS0W4dhTrpQk2ngu3Sx6Pt50OzZAvO7NsfsPq3wfc/2mEQn0Oj1Dh2hHUbof4UBuw3Rm+Kuj4UWNPa7QD/4plJV2dLBzMLusJ3oYNRq8rqVmswmMAyZJYLxI9b51HZ1dagWjUeGb1Yvd3cQfKH8hJIy5tdYAi5RL2WYXJhE5/PB+60mkW4RRdUfEQoznrBdSDLM4u5gxcovMLN1M8ykx5v5noB5YhopXkCn84lHUzuYS/nIks88PJ0RF41E/+4ovEGBd4MRS7CzKNqEvrNuUMg9B9x/bm9Q9L2MolsvIPh0ZwzYSUEmT++wlUmWW1gGtkCu/0usIFhF+P8NuX6vIP1mJ1iHhMOI6cmMwJqSwX42YQKWvWYExIhspbxGh+KrqwcoDk2UewhFsfejGJQ7fzsyL6u7r8bC2aMwv8NbmN+FgPdtga+7N8esHh/TIT7CvE7vYvzqyeizgwJuhykGbzeEmg0Fn502089hWMaGwZqVmUU4xTCBN6W4lkpsQ8Bt3Mq4rxrpk9u7lGF6Lnyl4KtnvKsG/y7dzcBW5nehZBVYzwL4Hxvr9K0RIXyljohKgvnli5g3uDvmN/8rVi6ZDVsyjllcAteVauDxdqaRIvKiYBCZBsewC7gf8AHLrxep6hsBbIz23x71Av4D/5eRf/MlpFx7HRreq6jct6GLsz6W7v4WObdeQu5tphMyTKY/c7/fa3hABnAPOwr9aFYjZKbG81RVMQwcfmYUGskqiMFDm39kNyuBjXQm1czfvszzUlEMlAkpjnqYedQDWz3dMWtgNyzu2RIze7+HxV3ew9LeraHZ6g1MV+uMSXorlMfAi9JX56sya4gVQ3/L9Zjlbctj36YTUCuFy7GjlOjfGBaGI6mpjHziT0Gvug1ctfxc5xeRFtwI/JYQlmtSyjURZb+nSQVgQPozZd42S0vBZv1NmPrxP7CodQvY7t8LnWQCzegRx2u6nbDAtkhqEdb43iEeyPJ/AdkE5fkC7reb9PfnXH8JWSHNYOyzDGqWxmjvbortx0ehxq8ZsgPfRT5LxwxWE5lMNVlBzeATZkHBepdMGc9zZDnMczSimbJ0NZNSOCKCLBaDxSf2M8Kp1Btu/JRh2pFeJixR10Pdcg1Wnj2FbUx1zvfyscl8G2Ywyhf0b4HFXRn1Hd+G5tDOsPD2xo/Xb7AaYcVgu1IZhBrG+l9uIReFP4j1/+RdZjC5EwxLpRROgXEw25pt6UQmyiyvIOyqUr5xadbY1x9VmA+D4ADoN3jwH2XGPBlzphWLxGRYBAbhixFqmP1JM3y/cA4cIhKwISaMXsuanjT/xHbM/6Z0zs2sQE4EmaKY6juTtXqmEumNJlH89Pvn2XO+o4jLIfUXBr2Ec2cGoJetEcZ6rUXC9bYoCvg7sm69Q9BfQ8a1N5HB13zW/OeCNtKZU+iojLYm5yoObi69l3TyZWd80cdaOnVUQ7WNd/2qy80f9tr47vwRWNJZTELjoJ+QArOr19kmXTCry+tY1KUtFnR+G5scjOD64C62JKVhLdW7lIW9uf1wL2OlH6E3SzspI3tZrsK47dtgGB1MB0xSOugMyUB6QRHwzy8gyiLpm4BfJeN+/O9MaiI2ht6GaQwp94n6/PczMwKvQ7q38AuH5b106Li6Y07Ll6HZ9QUY7HWFQdJdKnyuKyKPtPW4D4GRLwKQUaUdk4ZzgXooJ+U/9HufgL3JPM/aXunFY86/JTn/XX72Oo16gPbwpvT68VW6dgn0c3XBrdeRF/gaCm40R/zVDlB3MsNqb02U3xaRx31ffxVpsu/rLzJFvEPR9xfc9F/Fc0qiQzcyU8P50rmtmb6+O3WMlEywpUNGbtFykeFnfYIkt4hpY+2187CMZ0UTzVxN/aBPXWBw4za+/qwXJnd8gZHfFks6NofOqZMwukPnZ/t5sGpYcV0eMGFIQco04mmAgV5GPF8dHofphPX+zL1OMAoPVXSbYUgctgRH42B6ekN6bwI+mAeqqPd2JSRCKzSAZcmTufb3NBFChszd2+jlZjEhWLl4Mqa+3wzfTR4Jh/Bb2JQcB6sQgsxS01jWa7KtmShqEYwhd3EsRBdFpOKcW+/iYcDLykDNg1sv4wEFYEYAgbz9NlPCB3hw5S2KtJfx0P9N3BemuP0yxeF7yKKyf3jjqegn9Wf7vYccrl9A8fjNnjU4cm4oivz/yrQgjqOy3BsvcV/voPBWMwTd/E7RIMaRUTAMDaNzM/eLMOV16rEtRzluI61vIOiMfE9Gu7vMxNmIIba6WHv1KmwT0llGM13Q2W0oDI3jGa3HT2NRt1bQVH8dsz5+C9/PmKbqEmcbmLDyMqaOsIpjoN68jpFOhugrQ9keBlB31cdQD0MMctiKQVYb8cOFfbCiwxgFx5H6WSXFRv38E7ONC8GvR3ZFFRwjIin2wnjykUq+/SNMunINqIIt4tOx5eg+UtqHmNH2HzAzM4VlMks+ChXbwFjoRwRTHUu0P97WlGykvIal4GCIBQGScfo3kUQw0gnQg4C/KUO3mYzytMvNkH5V+vWbIZOv9679DQWBLQnsB2SLF3CfuT1TAf+xZd0kuJffwX3uoyD0BZz3V0Ny0Ht0lpd+Bl4s5+YLirPl0fmu+6+GPhtWcr2UxpL3tzE6zVgxLT7qzRpeHueimmsw2HMrnWAzhjL6f7pymvU+hWJkPJ1GurtJ+9yPTVIG7Dxs8Hnbv2FZ63ew8bsfoRN6jRWFVGBRjOYGY3lpyrJXi2Xj5zvNIT/51t9F+vr1MIKM0N9qA0Y56dNpglhmMvq5bwcyampJwyhfw6J074YWFcEkMFhpXCN6cVOh9bsa920UwnLtbjo2rFuO2c2bYengDrC96Qc9RoFpYBysA6OgK/THyFdKvQaTwSRjNpIBL3pPsBejlOKMpVn2NQJy/QOWfO8oYKcT2NzwkciP0UdhmiUyUxYhIbA5Um9SpQs78Pv7VPeqId5GwUcHYCmXe/0FpMmgj6j7681RKCN/BFwiv9Ee8rscOS5z/okgY+hFJzJyY2ARm0RgKGJjorHB7wrrdz0MddYlvavmGEo//HDm+uXXThEUshpLMungMgmhvolNpZCNw+47adg8bzRmf0wN9PVCmCclwjCFmoLX/zPwNBlPMQ4hw1DZr799FWM9TNHTfDUFpXQj6yjH7Wu9AV+e2Atrgm4SmwiDoBD4PXzYALtqUcA//iANegR/G9WhcczjsuV3sYa8LVQoF2vFyDcN8sO3n/WGZotmWPHdUugl3lE824IVgEUso0AA53uhedlOTPZjQkGowwveGXwE2VKaBfyFCvzvSLveDMmBbXDvzhLkpDqisihchq9RXlqH2pI8lGRdRHrkGNz1f5ER35yCjXpBAFco/1VGvZR6ryFP0gI/v3/rLRSee4MMQX1Ah2ka+Rn8Lp8OkhnwAg4EuxO0dJgES10tWima9X0UFvruoghby3JRi6WdDiN+C4Y66WLlxVMwj5X1WPezqjLguhahomXiYZYUBY+j+5XybmGH97D23EHoJt6HubRhI+gNto1VhFkUGYMMYEFgN9y6TqFnqfyOkJR/8rtCIgQnepnBLDSQQRePLUFhOJSc1iTjE/xaagCPhHjmKJXKlt6qZwD8N82U5Y4Zo8IomibphPnKJDEBW+xsMb3dK8qFGh/whVFaKswpeGT+gEkS1Wl4OOmd+T8qnpHORoqiQOSFmkSmYGtYPJxDriHlZjuk3f4UKSFfICvFBZmhvsi+sBt5estRsnQMqrdvQVF5GrIqa1FKJyjPv4/CqJkKOzy43YJRrIr+h9QG4gjpjOgsfwLrz9wf+Dpz+8tIo0Nk0TlEDzRaxq33UHSdNT/1hmPEKRhE3IdxIIOG12keHQvdUH985myiDKf2kzt+nDYq4+vLrx5XBK9FTBIsSMOmEeFsk1BYEng9CjK3B7HY/O18TH2nGb5cMBUm8XdgcysOOqRuw3BVh5cqKKKZMqJhGROhCEsZFLPkPqUTaTQZYJBMaJXfGqAGGMiKYO3Vk4rD6ZM1XVkCVslsHmVmbz2aFdXUU5mSFtjg+rGhMLv9pND6T8xUGiSEwDOa9enp4qlm8Qn4bt4Mipm/4qvp42HH6NaTvMSTU8o7OogZG1H/DplCLlb69Ulz5mEUUXfiYcVGO5Z0E+H3Q5EedwmZx8+g4MgB5FLoVI5Ww70xn6BgGsuzKW2Rse1rlBU+QEl1Hh2gFJUV95AeOwr3L/4d2VeF7v+GrEBWCwFkg5uSNhrYgJEtr1mNYrCJZfq/jrIbf0eS3wBsjUlmZXIHRjzHbTK9LC4G3189CjX7jejD3D7IXZv0vxnLLx6EeUykUv//3HkljsA0IR1BJqmpcD11BIs6foQ5rf+BtW42ME/JhCWDx1ipdJ5t26fNKo6aKTgI47zMVfMZ6QBqDusx/8R21v0U2mxjqeTyJdpZ39c9qkWzLIo96UOXMXcFfBk1a/Cy/9SUEihGxuDjqSl4kqmZMDh2DLN6vIdZLf4KHaMt/CyZoiRayYOS0y0ik2DD2lk3Ogx6t8JgfJsNzHy4Ky0WN5PjkZYUjfxTp1C43Qs5J7zx8LwXqgJvorg4GUUhJ3FffzFyZg5ExfQ+yJ3wIXJ1v0RFViqqyivwoDgT2aXxyA39DKkXmjHKm5PqX1HG/zNvfkpnUOX/f2YP/V9Asd/fcCpIjw3K64kiJcdGMurvEOBoaB7dScpfj76O65WfXllx/QQjj04fzTZo2j4CKiubzXSCXWl0/rnTMIVpUHNKX1jevgE9KnorBoF0ayuit+m2zzFJJTIhZnPITYx0N0Yv+aEn542YsseOKSOUjMGAColEalmZqtpjldcsvqgQehQdFjwZQwGfJcfzdv7vmCEbxpgXbhckfdwEljXtytU/YuqHzbCgb1s4XLvM2j6ZZU4U6S8KOlGR2BIdgS1hYUqd7J18H2eyMpB8LxLFhz1Rvt8eFdudkHP1FIrib6AsN025oaQKpPbKIpSwjq0pzEO+pzbyJnVG0exBZIF2yNw0B1WZcSiqTUZ1XjVqC5KQHaeBVP83kH75b3hwjbW7H/XAc8B+2nIIfHxgR9iG3qbTJisC1CgumODKiF0Uxm+3VR64IL/lt/zKCTo1BR1zrhmtadtIZWAVkgKze6nY7W6DpR+/jhGdXsQmFwvYJKZAO4xpIZz7DRUG/Bfg0zkMg0VExsEyIUlxgGl77NHdYgVGeZiQZUQ8xzF9xCAkJ1fJ96hj5AfnPcSW28GwoQcq4NNDnkcrv9Wkg8GA0WxKZ7IMuoMtCZGw8TuNrz/ri0nv/gVrvlkE6/S7sKbg0QkMhKFEThLFHHPdhfhkJIbdQvaZXSg4aofSc7tQctSH9fVJRuohlHtuRqHejyjatBDlpqtQ5OOGkgeJyKwtRB7pvbwuG3kHLVA0bRAKZ/RC4dQOyNg8HpVJZIDaYlSUlaOiMBNZd75FxnXm9Wsvq3I7hd+TNN/4vlEcvoZSaobTgcZ01EzSOEUyxagxg0eUvkT+EHt5SIMu1t+4yEhMooOwnAsKZ74XuleJ18ZINk+6iz2Xr+MbtQ6Y9tFLWKo5GfbURJZhacocBoPI2zAPl3GOf4WJ7FfK9BAeh6U005GkgOlHHDDMRQ/aAX5MTdLHEosr9++rwK+tQbNrD7KheztIybMm9MamgxT/qZkrw5mkRaH05FQY2hhhlvRVs4bd6myJzVl3qTEi4BB/D8eY98ICLiNhlyHytyxGidmPyND7GjnelshhzqwMvoLiSH9U7HVFudtWFH41FPfGf4ocjTYoH9sb+V9OQO5pF1SUFKLoUQkK6rJQvH8b8sd3QLnGUKRRAxR8NwfVZJYMZKK4vBr1hbnIvm/K8vA1pF7+B0UcAf5Z3NEppE/An5rg2kdK1Bfd+Atib02AS7Af6V5ElkxNY1QRfOnHNwgJxmh7C6y8dhbWZDlTGb8nGEqeDwlV6NcgMhQ2bBNDfu/K+l1r1jRMIt3P69YSFmfPMw3eo74hU0hE81zNoqTr+F8HpLCOVBrSyWREtpCOIJ3wAMza7YlNt/yUtLP5dgiOpqQrgq++juCfSc2GYUgI63uWVRRn25SDPbvz32ri3TImrwx4UJmaRydjreY8TGr3IpYN+BjGt67A904FIu6FI+PGUdy3XIea1RNRrvctSnZYMLrNkeekhZota5G5xwYZLloo9/dFKYk+l0q1/GEsBd1yFH7eGvnz1JAxpyeyp3dAxfl9qK7KRXFVBcrLc1G0Ux8lE1sid1Yn5EztiPyvJiAr/BovvhilFakoKS9FRYYL0oNlbt8LBF1V0kmJd4/A51/5AAU3WBr6/w13b7+LvcG7lEEbYwIinSfmFKAy5mDC160BAVh7iREfF690xaraQlWuGvJ7E0anKUtdw7g47EhOgPa6HzDt4xextPXb+MleB3aJ90jdd1gSN4hCBfTGv3+DNXaL0xG23ApUWMaMaXQrK6r9SfcU8GvrSfsHSD2G4VTi0kFBjzGmIn2iY+bfNDmgvkzzppiziInH1kvn8G3fPpjYqhm0Fk7Hsew83AsMQabhCuQ7rEaFxzYUHnLFg0OmyN1rhrR99rjruRHFWotxf/lsVM7qzzyujsxd21BZch/V5TWoqChBjuMa5E/9BKVz+P3MTsier47y4LMoqihHUWUZ6koeIttbB/lzBqBoaWeUT/8IOfNHoyQ+BCW1eajOz0V5ZT1yY5cyBTRjhKs6c2Suf/b1D5B341Xk+v8FD1nXHw41U3K8MlgSmajQqBnLNVOWXgbM0XqMbos7TF+sbp5sC1Y8bGOZF6ETcxfbMzJhbbIVGh1ewLIPX8Hqr3+AQUoCzEjXv/eIqugHCUQJQt3wKOxIYK1fJ738FHyusTLRgLRMr7Ag+Eb0ECUn/YfWOHSrjODFp2O9vTnmfPAKFg5vi6CbAbibFIkHGn1Qvm0dHiQHIXebAXKctyLr7EEUXbyIkrMnUXphL/Kv7cI9y9XInqGGklmtkTG1Ex4e3oaH1WnIr69GefEDFG/SRMnk3ihYPIrrNUfO5i+QV5iBkor7KCrJRElVFUr0f0Tu1Na4P68nKmZ0QmHERZQ9ykNVbjVKcu4jO+YzMhBBboj8h4x85fYu/1eUDqW94c4EPU+hZH2yo5GMxDEqhfalWjJiKSUzmvWY3w1lHP/ntlCBYM3vzFj5eNxLg6WhIUu6tzDjo2ZYungybOg81szz2hTHMg3+8bb/mcl+JOJ1g0KV0nIjtZ0Ta/7qmmryJ8G3lHwcR+8MClPAN+TKCmX8DmYaSfCljEzJwNqV3+Dz15tBZ+ZU1tulyNBZiCo7A+QGn0bhopEoIsipJ/ajYqc7SiMvovJBAnIeFaFctEk+y7PNUwlsV+RO64z7k/qg4tpJFNVko4xaP91ND3kT3kcx1X3+hI+Rbb8JJSXFKCxLQgUvsyD0LHLnf4aHc9uidDyB9zZFcek9VJQWorKmEuVJXyOVQk6Z5s2yT3K+3PAhOf6+3yfwCbVmPZ/NspUpkXneXMbpI4XuCTKdQJS8cSivWdFLVNXSV6H0SEoJJp1dsdBLSIRLfBys9DdiVuvXMPeDv+D7GeOgF3gRGxJiYBnM/QQFKpM/lB7N57TnbzWlEmC0y/iBpKGtFJF2DPayigqlQmomU7WUuXQUIWaMUqGo5+3ot5pQnAWVvrl0XcYnYNqwrlj4ySu4dvA0iq3XIteJdF2ahXyzb1AZRDHnYYos59XIyIxHRGQgKZmirCITecWlyM2OR/7aKXg4syeKpquhWPdr1GbeRw5Y3mXG4t73w1E0uSuyJ3dC6bopKMlKR0lpBcrq7qI8MRAPF4xBzqRPkTatBSp1v0NpSTbyK/JRWVCN3IwdSAtifX9V7vB5Hzmk95zAZsodPeF+GvAKPax0j0rXsjEFmLCkiDFxbNOGfG7NMlZG9YySyHaxEVyfVVNsGFV+JEFNhsPdbNhFh0Jr7RLMafkCFnzwdyzWmAkzCjFrlmZ64Yx2tr8lnUa5p4E4NHbl/loTYS37eMLE+ZpgIqOD9kzF+ZVVTPuMfJlYKPe/mfKAYkqXYZMN/l2T3jq96GAYpoTDMYRl3pbNuLh/Nwq3b8DdZT2Qfz8aFeYrUHTzGMsyL5Su1UBVUQIK6yvgqv0dEq9fYsyXoqTsHvK2bUTWrLYontIG+csnoSo1mULtIUqrC1Fop4Wy6Z3xgIyQ/sVAVEUH0rNzkVeTg8qH93Fv7QzcndMaWVM6oej7GagoikJJTQFTAp0j6wTuB3+IvGvvosLvFaWMy7v1FsIDpmJfqAdsqJbNyYwS0UZ0YrnhRKK9kVIbbSsFswHzvS21jbl0koVQ78hgSkICbDLiYXvEGyvHDMG8D1/AnE/ewaKVS2HIUtYpMVXpArdgWzW2/fOA/TUmHWUSwE3t6XkZhlzPnsySVylzNp8LPndGj/k9bBsvTCYwbvMPRHxJFYqPuyNvYnM8ZA1eZroG5TtNSPvnkLlhIQqKQ3lSeaipqEHglUsw0FyIosI0lLBWrRrfEwXzWqJwZi9UXfUhsEABE0KNtzmyJnVDvkY35FLpl547QHcBKlnLZ7HWLzLZgOKJH3NblnnLmG6SblME5oLI41FBPHKiu5Dmm+FBUAtE3hqLa4GLsDvYiwwYCd3I+zCQiRoE3iSMYozRbU7RJoMqT1+nUaxMloyGZXiiAvrW+CS4JOXQGYKgrfM9vun8ARZ/2AwL236A1cZGsEhIhhmFoVEMmVG0QJP2bzp691tM2KJxH40mtN/0PPXDImHPSuKfgE9r4i2/yRRPU22vjMhFpMAwIBFX8h+i6voFlM7qg7LbB1Fx6xKpewbF3QEUaJDGl09DdWURsh4xGqsyUZf1ACumjsT2BZOR89U4PJjfBnms13O2W6KyLAclzOQlEcHIXtgTZdN6st7vgAdeesp96VVFD1BUn4+ifU6M9pYon90BZVOYFgKOUCAWoDK/CAWF+TibEIk94fuxM+QqLIOuQi8mGOtjCqjipdyS2pyRwigxoriT0k6Eq4kMd/O6fo58NqhSRoWHUPHfgU7EHVimJMIhORLmO3Zg3diRmPvhPzCt3WtYOnYQNu7zgnXaXViFpCrRaiqdYIx6EYpGjFwxA0Zso0mkihnQGeVeBeVz5f2zJnMHpVKQtC1zH8zltfE8G+yZyLfgh8pKvDgl5/+b4AvYhjJ4wQaQ+lJqTf2wMDimJ6AyMhjFixihZ3dR2J1Btq8LqgpSkbV8OHJndEHOtNbItSR937yCAqcNyF41HOc0RmFj23eQOKUtSqa0Qp6bCcpKc1FRncOcXYBCvaXIn9IBDyd9giz9xSz/SlFUm88LYyo4vRNlGr2QOasNsqb3QsWJPch/RKcoz0JFfj72p0VhK89Rh+XaZumCjk6FFRvWPoR1uMw54Lkr05/ZoEbM3xLxZtKJQ9Ekw9ISrYbSVrEEm8EjI6GmKXfhEpcMe6+d+HHGJMxq+4bSjT2z53tYse57GAX4w/iOAJ9IppAbT9lW4RRg0bFwpbnxmC4EzIrnYxFF55EUI30INCvu34rHteQ6ljwnSzqDBT+35DmJyd+OjGiPmDg4U5TaSm8phefTGDWC/3POd4gV0Oh5ITywMuFPVWr8ZuPB9SODYMiLM+H+NsWFwiYkHbFZd3Hvu2GoYHQXZqcgW2cpiqKvUKWTurdvxcPPP0TB3B7InN6Oar4tRdtHyJrQnOD1heGYNtD5jNF7dS9Ka8pRWJ6L/LpyVJ07iLwZ7ZA37RPkfDsa2ffDWPPnoLguH4XRV5G5aDSKpENncgvkeZmhvKoMRWUPUFhxF6cT47AlivQs/RkCPBtayiBlTJ3AK2WSgE9xJIrdUOYYRN5h4yeyHI5jw0tnTQRreqaDkDuwSUuHxYMMWPsexub5szHn07cx451m0Oj4CpYsmQST477KdGqjaNEMqq5daS95teDxj1Ppp99PoHBNxcO795Gemoq01CQkJyciMSkecQnxiElMQxx1TmRSLCKSEhDPddL5XVqDpfKznFSmMQZaILfzvkNxynM2ajhWo+kzQO3iolBWyTZk+zfbTlFiQOCk79eK3m4kY8dc8beajAlY306FblQgbMJCsJFOdb4oD4987ZFn8QUqfd1Rtm42qkiJVRVlLMOyUJAfiftUwAXjupPW26Do8/YoWvQZyvW/ReEtD0TEXsHy8dOQFR9LSi/jv3wkR15BztfqKJ3UmQ7QG+VB51Fcn0dgy1CflYKiNZNxd2ZfZIx9B/m6q1BR8gBl1SlAdTEusQG1o8IYrTK1+XE5pZREDXTe1CSNyd02qt486RuPgQ4bz4AOZHQnFu4EyerUSeh9NwdT1d7FyE/+Ao0Ob+OnKSOxeecOuDHCzRPvYjPbVY9sISnx8f7Z5jwHO0bjwahwnGa5fZRa4QTV+Dna9fhE3E5KR0TqXWTcjUfBnQhUJCfgXloKrtMhTien4GyDnUlOxfmkJByPi4VHKCuNoBCyLiuTp65Jl4zhzHJTeY6ygH809R70uKIhPUUenCCTCZuKhF9tpEG9OFJjRBDMbt/D4Xv3kblbG9krJ6MmIxpFq6bj4bQ2KI2NRDEPnl2WwnKuAKW5Cci7vB2VPjYoP70LpUkhKKzORU1ZrZLDj3jvgMX3y1CZGoIiH2fkLhmIwkltcI+RXXzAA2U1eUo3bmFNDQpNvkP+pE6omMXvfpqJ3Jy7yK3OY0pIg39uOlmJjRCRDAPWuxLRz72OBpOSy5z53iQ0BsZx8TAiOPrhgbAOvwubhEwYXjuFtasXYUnHdzHjrWZY+vEb+OqzodjgYQfLxHAYxydjq0QfHcBM+gbodEZ0psfHkPTCioAlpG5wGLYGhUKbVdHG8FBsoYYwYKqRextsGIyHE6IQkpaKwDvJ2BHGcpIpSlfau8Ea/zbg/o3opJL/9aX0JNhNr0nq/J3JScrDmuT2jWZX7uXx4KEwIC2ZhzFPSM1JL/n1JhEkdEbNEHYbejy4XTZr8GO7kPv1OFSkRqMywAv3J3RGyrQuyFo/GaXZUcitK0FdSRYFHGt5gldOMUYZh4JH5RRmTAks46ofhCPnwmnM7NcKJ0d8iMrZPVE3ug+yx7bGA/tlKC+rRAH3UVx7FwWe25A1vh0ezO6KrPn9UUmlXcR/IiDjs/NhGhKMrYwomXyhJzOWSOnPvx4aG0pyu5L3w+OpDZh/Sc9eBMDpxk1s3rARX/fthlkf/Q0zWzbDV+NHYb2jHXRDg2GSQieLjVdytbCLUaB0CoXCQmbeKG31+DhmBFHYRV9uRY9LhLlMm4+S9ECnYyAqjkeHle5keU6CGZ1Bl9/rxaaw+pD3PMcGM2J5aRBKkc3vG+cOND2WmE5IOA6kqO7ekR9jaOb/kOAHhDDvJ9LTGBkKPf0KY+Moyl6chapVuUOUmsH6fjrSA7aj9IspqIyjqqePlV47jcLJXfFgVgeUTO2Ewh9mozCSkYwMwl2GEqrPkpoSRm8uiuOvoOqkEwqt1yLvm34on9kDZ2ePxY/qzZE6tz0Kvh2PIg8T1ORls86/j5raahRd8UHGnA/xgAIwb0YfFN48zr0Wo740B1k59+AUn6DMlTNkVG1Weuio4NmYSudWg8n9dspTRiQdSE9eZDhTYSj04yjqmHM9/IOxQk8X0wd9itktmmH+h69i3tD+WONoCu1IP1gxD5vFJrMdeBy5q5l1vyWdR4Z0txIoA+6/qfoW57KgE1pwXRM6pYBlGsRoD6HWkFk3DVjIKKtFZAK/Z/tKd7kM+tBplAde8DMxYRFzpg9LbrstmI5NJ1CmkUtQiiM3mDDMCaYNmcwhP5PTLIJlmP6tUAofGXsmTSie1wTkXzA5ef2QEKpK6duOgh53rE+PDEgOQ/XSvsh3Zo2NSlSUEaQi5i39r5H/eRsUzOmKnFnM7XP7o3TzMhR6m6D0iCsqPS2QvfEL5C4dgazJHZE7qT0qJ7RH/sjWyNm4BBtGqcN39Y+oq0hD4aMSpg66TU0xyinw7i3j8Sa1ZknXFaV77VFclcPK4C6KCnJxIOkOdFl1SEM0Ai3nL+A3mqh3uflTRyZoBEbBmiWqgZR591PgSGexs92Gr4Z3x6xPXsTMFi9gRv/2WGG0Adv8bsKMedk0LunJtqEZkYYba3ClI+Y5kfhHmwDe2Akk56FPh7xxP43JlAujv1kKyybTQNaQ0j/NKBbPb+otzzfxynB6UjBM7yRxuzhYhyXDPyMXWdrL8GjUpyiypqqvqkJ5KYVafSLy88KQt2oecsZ/isKFQ1Cq2UdR7NmzPqXKJxtM64riye1RMqEDisZ3Re6CMSiwXoGisx6oSo/AjeunsPXb+aguKgazOFNFOsrPHUbxV6NRwVKxaDSdxF4LpZI+ytJRW1GAC/dTsZV0b9DQEE2taWeI9LKZShRRj2xhCWZOQbWd+djGyQU/jOmPyQR88sfNsGBIC2zcuBxWV8/DKCMWm5PiYC6zb7m9gPv0Mf7X1gi6mNJnwJwfltMwfZvR36ygugK2zBk6zIHGkWHc4Pk7etqkRpXbp3XpLJakmmussytu+aJi5Ccss9SQodEOZYesUV5bgYLKeyirqEEJS71Ci+W4O7ETMie0QQ1r8ZIpvZA3uQ8jl6XZvPbI1p2B3MOOKE2TnJ0FKUpqqisVdWpi9hO2L9dC3T4nFK39HA812uP+1C4oG9cROZtnoqo4B+WVeague4jE+xlwJq0ak3plsOVpcJ4En1RL4WWbmAN75majPQ74ZuZITH3/JWh8+DfM6PQ2vvlyCfQu+cEiJYOlG9OIUHFILPOstJtE+5P7b8osYspNJ02+/29YU/Clk0i0zN1S6QNVPZ2tmQzuOZHqN8s8r+gQZfbs8yjkGWPO0Y+OpUINw3lSSTHzdWmCP0q/HENa/xCZc/upJk+4bUBZyT0qcoqvsiLmdwq0C67I1pqJ0kVDULJ4FAq/GYsS4x9RcO44yknVMhJXRg0gI0/5hVTyURdQsc8Acatn40uWUsGj3kfVtI+QR8d5OEMNeY7rUZibgtzybDwquoe4/ExGcSgM/UN5PWyIp8SdkuMbgZFcn5AK+8QUOO3bgw0LZmFey1cx9V15SsjLBH0mjI+dhUlaFraxLDYOpBKXFEclbU5hZSETYOhA0qklx5Ha2pCNLEO8jSYzZ2X+nKE4gJJ+nsz/f5Q1OoCYVDdyzEL5HTxSvlLqycN5tycmQJviRrln/qkd/JJJb6Ay5ZrlSXx5CVCYgdKyUmTdC0T2T1NQOmUAyucyIid3wD3Lb1CW6ofcqlyWXqUs4WqUCRl5LN9K74ehrDhZ6aApJ9g18m1pJsXiRRTs34aKb2eg9vM+KBjbDkWs7d1H9caPg1uj2Ph7VBywRHHYORRWZaGqMhtgKojLzIBdTDQ2xQvVSYkjAzHMyUExzOV0BAo5A5Zt0hDmScmwTU6H+eETWLlkPhapNccMirmFrd7Ad7OmQNvbC3Z34mCWKJMsogk2hRzTguxT0oQ8a9CYAWBMgSijatbB4dhOYI8xFQbQUfwb7DbtakIi9sTK8G8oqw4a9yM9iX+kE8h5bpOZ0cRJjw7gwfJTNW9fdb+ucsfOicy7yjw+c5mDrqjE5++sqVkKlUUlQD84EmepdEuLslCfm0kgClGWlYSiTcuQNrkVcknNRRN6oXDTQlRmh6GgPh8FpekoLCUDlLNGr82lMi9EUUUOimKCCagLijfMR+6cwSic2gO54z6mAGyB/Pk9UEg9ke3jgK+G9EdASCC3A4VfBlCUiRIyxqV7mYxKgtsQ1aqGjeXFBxFwlklxCaTpBDhEpcMhIQmW565j/U/fYVH39zD9Qyr45q/hhyHqWOVmCoP4MFgmpTKam05rU5W1KlN9pnSeEHhLssDuxFScu/cAN2k3kpJwvcGu0W4nJCMq6T4uJd2FJ53S4rbU8VTnStXUuP/f1+T2OJlAa6h0MkXi2N0HbLHHi/JwhvDiYhgGBMKMHqzcESp08S/MgjQm9ah0KliF3MblB4moyslAZXEWSmuyUVSYgBxLbWSPb4VCjd7ImdYeeStmoPLeHUbpI+X5P3kk+ML0aJQdPYSCjT+gcG535Hz+Hh6Ma4WCkS1YGXRAruFMFB13RkV4MMoJskxDOG1vCr15C1jKlaOgIhMBeQSTkWQQkczzkSh98hq2hfuzAUSj3IVbSiYsrl2C3qZNWKbeWrkvbvqn/8CyER2xettG6EUGwDrpAetoGUiRu4Ulgp689qdN6QKOiYO93FTCctIwwJ/lXeTPph3Kakimo4eHYBedaXd8GsziWK9Ld/Jz9vd7mamUkCz/ZHDKKJRK/0HDL3M3LAr42RXVsGO9qR/Lk5HuXW74r0zpnAhinSqzVEUvRAbjfM5d1BQx8osyKPKoAUry8HDHNhRPaIlClmEPZ/RF6poJKPG1Zi3viEyrnwj4MBSO/xgPJ7+HrGlU/nSUyjXzkeNjhvL4S6itzERdDUUKK4f6wmLuOx9h2Xeg0b8rTFzM4JGVhy1BIdgkPWMxQTCiYHt6nrvRnVTS+z3Y37iKrdrLsbDPh5hPetf48C/Q7NECqzcsh8Htm9C/x9QQmwaDcJZ6ZECLGFJ6k/38ohFEmQepzwZW9azJM4Klk0dlMslTJoHoxZKNGO2mFMgSZEL7jSODf4TJvQTyGBwDHsciNARJBfKAhscLwZef5Gbep9dulK5ZyRNP0cfzzIQ7Fo83l4OwobSV4cgIhDyUeeHFqC64j7LKClTUV6PA2xyZkwjs9E9RMbM3CiZ2RCZr+ezJn6Jg/LsonN4RJWtmoXC7CcXdTeQVpKGojvuoLEE9U0NR+UNE5iXjVGYCXALvwDjhLjY4mmN6f3WYBIXyQuUhTwmwlJGsYNVDCZQZSTEUZMlpylPFtlgb4cvPOmN+q38w2l/ClHZv48dlGjA+cxbmyXfpwCxXQ1KUB06asB2UJ4wqfR7/uj43ocaQ5wkYiaJmYytPxOLnTc0iXEYDmSZ5jtIVa80UKwNpkjaet8/fwwR8eQycLjG1YZosqVM9e6lxaVar3LoDnElLxqawQEWRPm9Hz1hjriL4wgJyV4pxUBiFTAD8rp5BbTFZoLIMJbWFKKzNQYmPDQpm9EbxuDbM4W2QO7k3Hv4wGznueigKOoWK7FSgtgyPagtQXpWNalYID/MycCsjC16JSTCIDYNuFCPpZgy0oxNhfTcRqzXm4of138BcZqhK1y1zscV1shfLMPMHOXChwLJyccTKUQMxvt07GNfxJWj2ehtfzZoNrb17YJFEsKn05Z45KYVMCYj0VAqTmZGqZRz/met+jplS9CnGNlHuN2R7GPF9UzOhc8l4u4ysGQqjyLbSdk/t6/c0mbsnD63WoeMdSE1mmIvYE8BViwp8LlFFeaSrEOj9myckT8/eFhaHreGBmPf5MNiv+5pMnU8NkIGafIpBAppzaQdyTH5EqaMeKm4dQmVmJKpq8lFRU4a6qiLWH4XIL83FnYcPcIj6wTKeeSuKUSUDTjGJ0EmOhiUZSj8wDGZMNybnDmLRsCEwvnQLWxMY3dIrl5TF/J8M610e+GnaUMzp+grmtn8Ni7q1xYLurbF101LYxgXA7t49GMiDixilxhRfyhPChIaV65Gxiiev7/cyRYT+2gD7D02e4mFMUa7L9HwtJ5cxLhr/8dJMfkFLIr+AlOARTWHyKwXfs8YDxtyFVcBtLBvZm+r57ziw2wkVlSz/ZLJkSQEDuxDFFSzJ6ot5GuWorK9gcVePTEb41Yib8Lx5mqLIj+cQie8Nt0Br/VdY991MrF00Ditmj8bmLZtgdvuqMsKmHRgB87sJWLF5E75buxm2qdHYm5QOj6OnsHruVMzv+DrmfdQMX7V9F7O6vI/53d7Fip4fYVnX1vhuwgSYHzwMS6r/rXRYmYUjWuH51/XnNWUaXWy88rj79BLp3Hkc9bI0e1QrD1inT/Dzc6n3oE8HaPR6ef1nEdD0e+nhskh8AIfzZzFf7RMsbP5XaDkb4mBBBgrLmb9LclFZINFdi+r6Itx/mIzTQZehddAJQ7dro6u7FrpYrMTGm5ew4ehlNH+1OcZ+/BFmt3kbs9sSyLbv4Mt334Tm9PGs2a/DOE5uhUoifd7CV1PG4puv5+GHLzWxVO1jTJDJFG3ewZLhIzD0s6kYrt4L8/qznOvzKmapf4yZH/0Dc4f0gTNVvw1LLxOZnSvTsBuu5Z+Z6pqfZcd/1k6N9nidpqXi4309b7//kYUwRfK6DqWkoK76EeSx2k3hb1ZXU63cqy2/ux6RW0BPkRNQ5a3n7rCJKTlOyf30NCpc85RkaDtYYDppdumnr2O2xWZ8fmQPPAPOoaQyAzmlmbiWFo6tJz0xxnMrWjuuQgfH9VB32Kw8vaKnnRaWnj0Ax+QUdBw8FJ1lpuuANtDo/A4WqLXEnJ6vYmaLN7HeQAeO6Ymwi7+L7Wcv4MtRXTD/45cxuz3FXJfXsPLbedDa6Q7LhASM0TNFi35jMLN/d3zZ7RNo9OwCzZ7vYcFHf8W3Py6BS1Ka6skazPvPu8anTa5XBO7PU9wZYcpnDfc7qPoWfgFEbiP3REoqU0bjwmW2kEwQ5fr8TtWWz9nu3zR5vNv6sGD4S39+NQsmeQJnE/ib1VZJvxojn+yfxS89E1Rz1E2CeaJhKnClb/jZnfM75nm5aGOWicYREVh/JwDfLZiGeZ+8jIX9u2C8yWp0ddiEXjY6LKWuYvn5fQSYn9msRQ+HDZBfgB7sQnPSwXB3XahZr8K3l33h+OAuFurpodlfm2Fqv26Y37ctNLt+AM0Ob0Gj41tYMLYPHHa7Y4upLpZ1aoGZLV/BnBavYl7H97F1vyvMkygQqQGsUpKw7tBZNB8yHwMHqGNB1+b4onN7zFX7lPt7Hxp8b3r6JBzvyEzdgF8VvTKELUPCxsFy9y1zamgwDGgCutxLb0SRZcaSrrFbVTEBOpgKPyqR4i8QP1w6CoOQEFZL0VTjCbAIYuoJYnvLg6Z/p5tmlIonVo4XjpyiCoXx64Tlmwq+R/UNP8ErD2zgy6WMTGzhBRgRXGVGaYjMMlUJoCeMnxmGRkNPbgVinSsXPN3XBRqj+mJx2zfwxSh1fG65Fr2dt0DNQQdTPG3xxbGdylMjBjhrYxBN9cOFqp8IGSI/imy/EatvncLCo/sxzt4YrXp1Q6v33sB3vbtDs8+nmNHrQ8zr/gEWdv4AS7u0xbw2H2BetzeweOogrNKYh2VG+tDNSYNutMzHo3IPiYTLg/uMfit80ms0NIb1x4Ie72Bul4+xsMenmNnxZXw7fyocKR71G4ayn7nOJ0wiOoJagQDJ3TmMVnnixpbb17DIZze0b/spudYsJuEJ8JXgkWlu8QmY5+uJiZ7WsL5D0OOS6Tx0ALazPJHbnGBJFfX8Y/82k+DUCwmDN9m4ukHVN8FdWZrJe/n1xfoa/sX/0srKeQHhMGK5o0+P1RdhxRN7WkwYE3xTNrJcnAC/3v8mxtrrYMbALljU9jV8MWUIxspPizCyB243xARPc6y9ekr54UP5AUQBvdH6OW9GH+sNGOtqglU3T2KoPKrUXQfjzDfhvdffwujO7ZRf2ZrX62Ms6t0Sml3exYL2L0NT/VNssrGEfUIILB7GwWy3N6z3HYNZcjpVbjLMGU3GchdNdCS6zlmPfkM/J/03x5LurbCkV1vMZ9k3/5OXsGWPO+wSsngtT1/jkyaDMptuXWOj3qJWIEVLSRjD40aHYIzzNozzsoIhI0150HLY4xE1GduXXx356dJp9DJeC81DXrCJI9CkZdOYGFjER2L1lfPYeMNPAe15x/6tJlO5DEOCEZmdowCt4P4M+HWPUMlP60Tx1dahlK+HmQe3BQRAHpgoQ5ZCTU/nMYl8ebiQ3AtmdecOL+w8xpmuw+x+7bHo0xexcMYQfL7TCIMdtqKr4xoMsN2I9VfPY84hRr9QftPI52tfq0349pQPvjq1T3la5aDtWzHS0xiDF2jizTdfYeR3wBJS//zewgAtMKP937BkyTiYZhUywhNgkJYE/cPe+Gm6JryCg7GVNb5FyB3ohwXBIjkZK49fJf1PxrA+6ljY/X0s7PkBvlBrh4VtXsUSOqpdQDC2URmrru/5udc8Jh5rr5/DCJut+O7sfu6bbRQms3DjseT0PnQ2+xELjnvBMkqGkgkA20aCQ+YCbvTzwzBnE6hba2HFzePUGLGwi06DaWwk5hx2xVh3M2j7B8BSpnI959i/1hpFowxqOdBBy8trIBgrT919GnwRejK8J0KgvrZaWSmWws+SJ6JPYSKzei2fB74MSpD2hPbNqbw3hYVggvb3qrKqHcGaOQrDdhkpPyDUy3U9elutwU/njmOt3yX0oyPIjwD1p8lTLPq5bMZoD3PuNwRzDrihlzOj1GU9htlrs1G2oXnHthj6MSOWUT+LeXpez9bQbPMmvhumBpOb1+iIqbAMTYBpyh0smjsTWlrrKD4TYRHKOp61rjixTWICRqw3Qfc+4zBHvQ1md2a66NIeC/u2w8zWr0HbWh/WKfeZ4iRy5KEIFHFPOYH0ApqS5id6WqGn0QrMlOfdR4XDNi6N6eqi8nTNwQ7roXXzFCyk04kASDvJDyxoHtqNHhZadAB96ET4we5OMjb53cKkXXZQt1iPb84fhEWsVDBNB5J+vcnMKmEmc6YjmTsok3JPPryrjN3Kj2Q2gt8U/2d/XYtLGdfamZgILeYMeZaLNU2VRx6b0kjSgyTdmdGJME29j2+3bcbCdm9idtd38eUiTfTZqYcBblvR300bajZa0Dy8S7mBcZzbNvR10IK6ywYMdiPFE+i5R/kdL3y6ty16sQF78/tBjkwFOwzR84tZaP7i61hC8begV0sskOfPq7WiAHwXP3wzjyIpiefI80pLhr6PN+b27QPDc+dgH/1A6YbeFh0Ge5axPx25iBYDx2Dc8M8xv2cbLOz0DhYO6IoZnT7CdyN6wobRbxbH2jgwFAZMZTYNWqfpdVtQtK31u06xqoeetmsx5YAdHSJM9Qg2RxOmr/UYtcOYAATChoxgyTJyzY1zimP0JuPN3OvB3E9GCg7C8J0G6Gz1E6Zsd6FQ/HXVxi+ZgG8scxPl1jKKdRs6fG4lhd4/WZ4Fv8E7AnJzsZWeKY9RU+Z/E+ymJiN6ArpF+B1GWCwcUh7A2tcb35D253d9D0sWzsAAT+Z2163o57pFeULVzH3usIqPxpcn96OfHaPfVX4seBMGk/ZXs74Xypq43Ry9KfzkV6IGOZEZPHUxmTT7zocfYUDLD7FgYDcsJPCLRQCqUbG3/xA6u7bD9C6pPzIODgkF+OnLeVj141cwSkhSbpyUH2OUZ9ltC05E2ynL0EF9HBYM6oWFHV+HZvePMKcXy8mWr0Fr64+wTOZ1BaVBh41pLjdoPHXd0l9umRSPGT4eULfZhD5WGzB7rxv0ovwxdY8D1CzXoT+vTevqadjHE3xG87Q9zuhLR5Zf3/rmwiFspWYY5WiG3jZ0ctsNWHHlHKOeOoHlpowPPH3Mf2VyC5klhaM8XGMLS0n9oCBcTr/3RJQ/b3ku+CL782tqsJs1v25kKPQoVpSD/GzMYxR78pNoMhBkwryqR1trqI05nd7Foo7vYbLGBAzx2kp634K+ArLjJoyn4pdnxxiT3uUpUfLbcv0cNmIyhZJcvA5LppGMKHWmCvmJdPmJsN50nCmuxmjbty9ef+lFln49ML9HKyzq2QKzeryv0P/XUz+DSXwQ7MMZ+bF3YXr+Gr79rC+0LhyGXXgK1XSwMtpmH3cf3RZr4fVeEzF6+GjM5T40O7/FNNIK87u8g0XUAlanjsI8IRMO3NfWaNUIZ1MhpZqtE4FNt29hLOm/D8ETvTLTh5XOETcKWn0MctDGrD32zOfhWO93TfklLWE3eUrXwhM7MXm7DZ1mvfKrXBoHPRXhKKWZiOynh6N/lQn4QcSEKVqbmDlScxRUSTL/58sz4D8i5Tf+9HZkfi7r0UBGAb3qCZqRx6jyoCH+WHZ8Lz7zoIJ308Xs2WMxp+2LWNruHfxkuBmf+dpBjdSo7rKJqn8rPnMyZapgjkxMwvzjO5SL72uvhe9P+MAlIYMNdV15YuUgJ5Z9tN6OdBwvA6w46Y2OPfuiWbNm6PzBO/iybycs7f0x5nb7CHN7fIjpbV7EBgMjONLbjWJCYJmShTW6xvhqySQyjaQlmV3Lso+lVTfN7/BK9zGk/9mYOawvI/9dzO/OCoL7W/Lp29i4ZCHMEuUJ2vKzbtKh0/S6KaQIvDmj2ZrO+t2F4xSvG6ldtmAItcsIdwMMok4Z6qiDofZboOV3AYuO7SeTEWgPLQx108EQu60Y7W5EZ1in/GLGhoArDCAq8+BwGMeQUZUBqt9oco7UFkq1EhaOG2RtZXla4T21PAO+/AZLnbJRHcpqq7AnQaZ40SPD2Yg8kNzDJmWMJb16Get2+dXnfs4boUbQ5miOJeW/g6WdPoblzQtYzzJmwnZLOoAW6Z+NYm+gPBbMNjYJa65dRj/S+1CWfRv8r8EhLhUrrl/AcCcD9HI3hNrObRhuv0bpGNp07hT6LJ2Fnt8vxpuvvY5xndrgi56fMHI/xKK+rNe7vIZFauow4370EwkOqdkmJgtfTRiG9Q7mcLyTQ41yB9oXb6HNlAVYsesI1BdpoefI8SwfP+V+3qYzMZVwf4vbt4bZAS8YJtyBQZDcBaOiYUUAymQX6eThq0GgPGMnElN3uypP0xbrJz2V8guZ8oNJdNzJe+0whmlMnootT+OUX+mW/oxBTIW97dZRMLoSPKYltquB6CcBXoAkiE9YU6DFeD5Nv5dJqCasRPR5brvY5gUKfDJm8+RAztPLs5HP9Wtlm0dyG289Eoor2XAxyowUmbdmLqqf7w1Y5kzaYa4ItwH04CGuhpg3cwzmdngPczs2x0ZvV9g/yOW6YZhz0B3qzHf92TA/XTsJu9gUGAZGKL83M97TUFHDJnEJWHrcl2JvM8Z68PPl8zD/+y9gFRKA0avXorvTGozcZ4GOnw3Dx2+9gUX9u2BRt+aYQ8AW9v0Y8z55B9+v/gYWqSk811CYJtyDsYcHlk0cB4s7sTDNy4GmvguG/6AL56wcaB04jpZj5mJsn+7UD++ykmiFuV3exWzamumTKZjCqMrjILdHC/gy6VJ6M+VV8rI8TtY6PhkbrvmxYtFBf6a2YR4GUH5YgelskPy0u/xKplQ0LjpkM/kdfF3qIG30sl+HwU76WM9KRcbbpWNHn+DLr5JKWz/xdA2x54AvgDfeXm8SHAE9/m0SFoaognziJtA92Y//vOXZyG8Av14ezF9dq/T6HUtLg154CGlJfgs3BtZ81Qv0wxgX+aHfLRRurMsJ5Pxpn2FOV+ZhsX59YHTtAmzvpCq1rOaxHehmsQJzjntQlKXAgtEzdrcF5h5wgFNMKqMpGRN222Owx1osmP8Z5n36Guxd92PN6avo86UGuntswajdZhi+8Ts0+0szDO7RGj/26oQZFGwLenyAL9u8zb/fh4nPUWy7fxdbYoKp9pPw9eJZTEFa0A33w4CZ32H9uVswS02DhX8Euk1ahK6DB2NJj3bUEAS/W2vMHsg00OJlbLWzgy0rGNWPRTMfs8Gl67axu1uqAMm3VvFJmEXn7mNFWmdUy0+dCgOoOrAa+zLEIbYozi4psJf1Oiw6vlvp4JHHp4t2kgiWhzkqs6efAv+ZHM/jC+jWsQmwJMsZBoVhS0AADqWnK08bR00dqlm8Pzl149nluYJPUn71I26q9PsCD6ursJMlkDL3O4FAMRrMqIRn7fVEL4t1jH4qd3r85GkDMLXHu4ykllgytC++sjMhlcUrEWJ+JxpzD3tghJshGzKUjZaAqb6O+OHMfthxn9v8gzDWSx9Tvh6HeR/8FWsWjYee/1W0Hj8DA81XYQhV/1B+3/PruQT/L/j4/XdY9nWFBsFfovYJFnf9AHM+fQHfz5kBK7mTNjaYWiUFRgf24YvObaHx+XjMtrCH4d37sJKOFL8ItB6rgQ+HTMSU/oOxtNfHqjEEtbexsPOb+Gr4QDj534RtZJICtIEwXsMAjAAgP2KkGxiisMDG2zfRz3yDUpoOlt/MdWGJK0HRxITy+7ON+hL8Ee4mTB8hsGEQyKQOAc8sJBIWUpk8BbyYMM8T1kD1EvkWwkT8242fZxInJXrr5SZXGcT558uz4MsWdY9Qzj+qamqpGVQDgXcKipWbA7eEk2oIvEzd3koVPdmH5Q3zl/w8uOawrviq4wfQZOk0xWYFFfsWLD1/AlYE1yqCThAXjel7HPH1maPKiNvsI+5Yff4onOLiseCiD2Zrf4dF7T/C/FYvYr2tC9SY419Qa4eh3lZQ26WN7o7r8FL79hR+Lyg2sHdnLFZridk9PsGE3p9glljn17HazhEmSSnQly7ejAosXMrc3qEjdEiL+qmZME/PhIb7ATTr9zle7TcXnUdNxGz197CMoM/r1BwaA9pjUZs3sElnA5ySsmGckAyTlDTYJKXDOjFduUvJOonXxFLSgunKOjkVC8hsA50YCG6boU4H70sGUIwir6+kBU89qLltQQ9qo29unqToldlHdMI7CXBMTodrYhq23QqBPFFD9IU8nv5nBxCqb2LKoA2/178doryakAFu5xQr2FXWy90O4gRU+79V8CmJgiaQ19GLZPbHo7oahQ2u3M/EeuZgOTlzUqA8hEGelr3xxg0sdnPF4u6fMg+/jnkdmYO/+QKfU7T1oRDSOOwJ3WA/NmQyNt+4gsnutjCkKpffmlt+9gS0GWHy099fL5uJJV0IYK/WWDp5Bvq0aYmJ307BdC8djGdNPGXVUgz45FV8w7QyUYZ7xw3FyoEdsLRnSyxW5zb92uJHtQ+gpTEWtmf2wT3gBjwCIrF24ef4utv78PRwgdvFy9h1wAdz5n+JpUP74IvRozB+8hzMHdwKc+R2684fYQZLyfkUlAt7tYUBSzLXC1dhv2cXNqxfig0rlsDCUg/GXt5YdfAEVh4+BaNTl/Elr2UYI3yUsw6rGj2MsFmL4WLWazHCcjWmWlLlW2/AdDqwxYljcLgWjF23gqF39izmmjti6NzlaDdhPnos+B6mN2VWkYhLMoz0+NEhHgMvZTeZV37WPjga2hHhOJJ+FxUMWAFb4v3n6Vq/GfznLaICiX5xbS22J7MeDwrmCYTT46QDKAE2cWmwvhWERQRifPtm0FrzBfYFhkI/zA9fXfbFEBvmQktdrLxymhETSdA9Mc3HGbPpFDP2OGHSARvS5UosnD0IU3q+iIP92iBndAvcG98eBZpDkbFgEFI0hyN5thryZncEZnRA7cwuyFvUHw+m9UL6lG5IHN8BydN6IGNyexRP+RQFU3sgf+4g5M8bhFSNXngwuwMqZvRCyWx15M5ogey5HcAwR+HckajXHIjwmf0xp3cbzCOLaHZnCqAG0OjB8q/ra/iebDSr1cuY2+ZVfEEtIg9Q7N2lN97sPQrvdh+Hj7rMRI+RGpg3eTK+G9EbP4ztji+Hd8WXQ7vgy8Gd8dXATviWbbNgYFss798dXw3rhLkj2uHrAd0xZMhAfNJ3Ilp2nY42vSfjxbYDsNDSA3bxZAIqeCk5m0a94gB0BpNI+eGkWHhRO8ksrH9n+VXgC+0/qlMJgPTyStgyZ8svO5iQrrfSO82Yu6xZRy8d0BazPv4HNnhZK7nVxJ8lIUsX06gILDm6HwOtdTF1nwNmHXVBN3kePIWiOqND3X4tPj9sBM2hPbCwzQu49u1o1G2ejcrvNVH83UiC/CHqJrdB+dLhKF47G2VrFiD/6zHIXtoXFYv6oHJZf9T+OAIVX/VH8dfDUfLjROR/9RlKF/dH0eRWKJkxCBXzBiB7SW+Uag7A3fkdcW9ORxTM74PiBeoIWPI5tkyZAs1u72BWpzfw/bD2WKL+EWa2eQ3zuryK0WqvYWr75vi+3SeY3eoFzOrZFuoDR+Kd/pPwfvcpeEt9CjoNHoMJHTtgzkevQIOpZ1bHtzC33VtY0OYtaNI0Or+C2WQWzVbtsbT929D49K/QbPcPzOjfGe2Gz8Yrvabjre5j8Fbv0Vhqt0MRq2ZMCzK0/oTYo/aQufh6rEQs7sQgs7icNC3YNAi037D8usgnjciovzzRQVJCVH4erChYdEk9hjIFKjYR1qx5v+jVCgtbvIZ1tlYwTX0Iq6AEChkq4lj5DfxIbAi8Cg1fL/Sz0Yaa/SYMdN+KoW4b+X4LpltsxPe9u+CrTz6E/i5z7Am7A7uYJNyiUCqY1AkpFno4eOMqvGPDsSMgGCNnaqL7iDEw2LEfe24EYl9QBLZfD4DnxUvw8LsCu/Ab8Lx9Hj6nfRFjtgoVk7ri7qLOKJs3lAwwBCUzB6B0QR+kL+uFQeMmYISuNTbu9YXhsdOwuXQDRqcvYoOTC74dPwrb1NrDzMIS62+cxAYPI/QcOgLtR0zHYufdmGHlCHWdn6Bu8j1G6n6Fyfo/YpDuNxiu/yXG6X6NSdpfYbT2Fxi1YTHmrdXE2E1kidVLMHXtSgzu3xHtPnoTM7bo4auj5/DdvlPQOnYRZoFRylNSDIIjWQWpRvkaR+sax+otQ8MRXqgq61BdQYb/o8Bn7hf1WE5ThgB5wOv5+dhGwWHKvGNOkEyDgzGfgmtSq5eg62gHm3gKrmiZFCmCRW6ZilSUrUX8HWwKuYUZvh4Y6KCDEcyTX984iuXfLcHCVn/HXPU2WH/6AnTu3Mem+HhEbdBE/g/TWbdzu+h0aPMzTa89aNbpc7SZt04RYwZsID2KHrkdS0/KUHmAdHgqHTMdug+yYR58DjnzJ6Po85Yomt4W+fO7onQu7Ysh+HLaInw84XsYBLHBWQKaUYhti0+EcVwcjJPy4HTbD/mLuyHGagt0HhbBMTsX4zZa4bUOY6F1+AxcshOhdesiRu63RTdxZKr9/t6m6L1/G4Y5amOE9UYMcjeA2nZT7NBZjNurBuPHPW4wvpOGH2ysFOHad/IEWKbGwT4pE5bJ95RrUJ6ywehWGYGPVk0dUz0tLQJ+eTkSkwS9BtUUd9Iz+1uXXxn5KgdTdt9wDPGz2/fSYewvNz7ehdmNC1g4oANmtHwD2u42ME5LJjPI7U5RLO1UjxWVGweVn26LiWW+CsU4V0vM8XWB6717+O7rr6H5fjN8M7wnLAMioJ2aiv1HfFA6pQWu0FH0Eu/DLPYOHMNi0XXWUrzedzSW7znCklGmnVHxSmeMDIzI3TPyXkokuU0qNgk7z/igZko7xG5ZibPbN6GEKaF+/iB4zJqNZuojMNfGDnb3VH0YSj0vrxJlEXegl5SFKJaa6TO7w/36TRgmZ2DDeX+803s8hmmugjXp2YqObhYRjIVnt+Oz3UYYZa6F8fPHYgEF6JJ2zTFx6Qx08rLBautvgXGtEORoAu3sbNgnJ2L41Ol44S8v4SvfHdiWyiBS+hWkw4bnT1NuCo2NgA2ZcCOZQLrHwzKzGmFQlt8Ou2r51eA/sxB9YYIDWXehw8i3vBqImd07YPQHLLVsrWGSWsDIyyBNJbIRVbaNph+RgK1xydChXph12BdfXj1L5oiFxhcLMPa9f2Du6MEwjEqFfuw9RP4wCiU/abCeTcN6RqRO+j0s3XkMzdoOQq/l2tBn9OjF8/gUnI2mS9OLS1VMl6ad/BC3jL7C/Skfw/0a2SOzHhb7fPDFxCl4pf9ofDBhKdZHx8My7iGMo5NhFJPSxOTZ+Kyhb/hTdwzEbf1V0EnKhS0dYMxqY7zccSS+33MKZikPoB3GYydkw5rbLfria8x4g9qg3YfQbP8xhgz4BNOtv4Kt/jKUTuyPO1/MgMPV6zDJqsFKn1OM/r9i4MzZZJ4MGMSmwyCSgcMyVZvtup7noB2VQGaNw2YG0ymZmfPvov3U8m+D/6imgkKjCBW1pbh+Nw17rhyCxw9qsJ/fAgd2rMLhoMPYRXO5fQEuASpzvn0JnqxxD984iMM3D8F8lynsDlhjX8BOWG2dDrMB78FqwUC4BPrg8llfVGmPQuQuY0bAedLvNezyOwqtdd9iwbjRcN5uA5/bJ3ncI0/YvssHaT4/255rR3D/m1nI2joJewJOwd3vOhwDD2Dhki/Rb/wkbNFdj/0h5+F88zIs/S/CKqDRzpOB/GAXeB3Wwadwb9sXKFiuju2X98CZZarp4QPoOGQYpjN37wg8BtfAK7CJDIFXxGU42q2E3pj3sH50G6wc2RrOU9shV0cd1brtkKPfHVjdCbe8NjBv38KO26cxf1YPzFX7CB6nvLiv49h18yA8/Q7Cxd8Hbn5s1xvnYXz7HC7cT0GtlHT1vz2/P2/5t8GvQRUqWQJWMu+gpgTlV9eixvZN1Lm8hlrH5si3/Qh5uz5Byc5PUbq9tWIltLKdn6DQ622U7HgXpTveR4HHu6ja0QHVOzuhZE9Lrt8S5V6dUbTrYxQffg853izb+HfF9nZ8/RCVO5qjZufHqNrfCqV7WnA/zWkfcDux5ihW7IPHrzxGns8A5B/qiRzZjwfV/44WwJ4OyHPlvvfyONvfx919rZC/Q2UFO1vzWJ+i0O0D5O1sRXsPhXvbomj3p6je3hL5ni2R59UKRW6tkOv2EQrcP0ClJ69xdztkeb6Pas8WKN/ZAWkHuyLbrR0qvXmsA5+gwqs9cva3Q9Ghd7hNc2R6t8ODvR+h8lAr1LqzPfa+w3XeQ7XTu6ih1Tm8g1r7t5Ft1RyFF9ajvuohqllu19dXqkD4D5d/G/xqKf3rq1j+V4ruYA4oQNHpr5Br/gqqzFvikUVbVLi+hSrPD1Cx42OC/zGq+VqxqyUbtw0q93SndUURnaOYjVC8txPy97BG390S1bu5za72yNvXGvVuHVG9tyvu730Lhfs7o+BAV+Tt6Yh8r7Yol/X3tEaRd0ca/6ZjFROgfP5d0Gi726PKqwVyCXbhni7I82iHkgOtUO39IbfphOJ9nVGxuy0KeR5le9ugjOAUetMJd7dCzZ6PUe7THWUeHRTHKznYA7W7O6BkfwuU+X6Kir3t8HB3RwLYAXX72qF+7yco4HWWyHUd6IiyXR+hho5Vvb8NcvbJ9bRHxZ52KPXtgpJ9HVHhxHN3+wR5O9qhzKsrarw+Rbnbp6jkZxXbeQyXVqgyewslp5aivvoeRNBXV9Whkgn391j+/Zz/nKW2qgylV5aj3PwF1NixEWzYQHZtUOXQGpX2LVHJvwvsW6PQXcBnI+xh9Oxog6J9nRg1HVG/vQvqdndHzh4C692WUdsGhfyubH9XFLNhisgKRWyoku2dUbyLgNCZyhmlFVy3aBcjf7d83hMlBLXEu/PPVrqzC8q4n3xGeREjusKzCx2FQO8gQGSZ0h1tUeL1CV95TjxW3i6CsZPOu787HYRA7eA2dNAKflfKY1TsbIfqXW3ooDw/Mlahdw/ul2DSGUvpmCW+fM91S7iPckZ9wfZOdB5eA7+r4vErXXks59aoduC127+PYlsykQ3ZzpHMY9cSVfbczrY5cuzeJktMIrHeV1E9GV/S/b/XpfPs8ruBL6VGfW0d6qpYevhv5AX9FYV2LVDo2gFVVq0BWzqBozjBW6g3/yuKbJkCPPui0pYXavgKKqzeQ4FjG5Q4dUAl1y+2Jt2yUQodPkKFI82qBWrMOqHChiDbvoZyNlKlc382FkGwfJGN1577ZvQ6NEe1LSNGGrHBKh2YVqzJIrYfoMz6TRQ6fsBz6a40cKnt6zy/T1Br0YmNzuPZ8DzsPkQhnbXEpjU/o0PQiSvptGWW76PU/l0UkfazXdqhnOvC9K/c57vItW6BLLOPUMdrhM37AF+rnToi25zObkdnYUp8ZNkMBbbvIZfXWMxzLXR+E7U81iPL1ih3ESZ4G5XuTGU2PDft11G95zPUFN5VIc62ra9V/TbOvx6y+XXL7wc+/5Ujh/RUCxkNLo9wRpELG8/i76iyaYsaZzWUmr6KQhdG4C1LVGVEoTQnDWVpfnQWY2S79kSexQtsDILB9StsO6HeuT3AvFzFhi3axpxo/zIqfMaiOswDFQ8jUUyrSPBB/qlvkOPwCaq4/2qrj1DOhi93aPWz1RGkYtMXmX+7oMJ/C0qST6IoKx5V9/1QedOI7NGdTsB9W7ZEPfdTY88UZdcWZY5d6Dif4JHN6yjk8fP3TUZZlA+KHwShNCscJRG7kX/kK57r21z/Db6+jyIev9KRed6xE7dty+huwe9eJ513Q94ZbZQlnEYJty26ewtFAd5kHzVUOLyFXDp+mR3ThMWrKDd7BcXnl6GqLJvaikBLYNU/QlV1JWrr5aG0v4/c/x1p/xFqKmtQXiMFIE+Sn9SknKeYGopqi5dQYf43ZO4ajaqUi6gsY3qozEZxdQ6KS4uQV16KmvzbqDo2G8UWbzM6GGE2LVFnz4ZkxBQx4go9+iIryBRlWXEoZ6FRVkWRWZOIipocNkoZiuLcke+hxoZ7j43IiGbkipVZk1atX0Le4UmoJNgV8mNLFeUoq8tEcVUlSstrUHjvBjIvLVcitNjybQpXshNBL7Jmnrd7E+WuXVF7ywSVxQ9RWF2Kkqo8FJfnorQiD5XVhSiO9kTuzhGot6TjWr6JPKfOyOOx4fA6SvlZxv6JqMw4z2vOQ2HZQxTVFKKgrhwV9QWozohDlu84lBH0CrOPkUVnqAzcxyDiNaKUAS/da1JZ16GmXgbY/vUkjV+7/H7gyxlV1VMIVrIOEG9VPTi5JicMRce/R9mxRShKOo8iXoD8EgYIOMpotYV0bDZKdTFyKopQHLoXFS5jUGnDRrd4EXnmFIunl6Am/RBqS7jP4nweJxOP6Dz1RUVAsQCQSWCKUXrvNkourESRA3O5+WsosXgDxe79UeTnhQqyTG1FGeoqClBXnIrKvAdUTzksWXNQXVSBqqJcVCY5UVRORK7Jmyi1ehnlTD2V+75EwQM/5BCNqkoKrVIq7UIet4LnIc8PLi+hI1agNjsExSd/QKE1WcuUoEv0OvdC+WUd1BQl0OnYGnQ8VJcAJTx3VkhgkNRVUr2nJ6LowjpUBJorP/QoTamMzFWT4PlGwJf3CuzypdjvsPyugu+XlvpHVfTgMtSIICwuQERKFJwCjmPLhd0wv3QI/nH+KCvOQl3NI1RXFKIsn3SechQlcXtQnHYeZbkZkG6FR4yWrLJMHAy6AMNTO7Hx3Ha4hZ5GZtY9giFsUoqyimJU3AsiPfuiLPYoKrLjUVhZxP2ysQleWGoUzAMOY8tJL9ie34+AlHCWT0XcfxlICKgoSEFxynEUxXij9OEVFNBRquhwj7htUW4KTsdchfHlfdA7sxNHom7gIc+7ppbsU1uOYjpFwYNQlMUfQHncERQ9TFCeQirsUFf+EDFp8XANPgOjGz5wv3kcJ2P9EJufRvYpgdxD+ftU779++UPBFweteUSRUifISW36COcSItHN8ke8a7gUbexWoYv5CqhZbcaPBz0RlRZNRsgljozCsmqUlOShoi4LZbX3lFu8z8aGYJ63BdraLEcb25XoZqeFrtZrMWqHPvYlXCe4EpF5dABuL0ByH/KIF6KHh4X3sfmyN3rarFG26eG4AW3tV6O73RpsPOWNlMKHqKt9SDpPYZQ+RG1xOcrLilFZmcUd1eB2ahI0fazR2vZHdHLfhI5O69DDcjXm7baGf2QII7kIFRX36SzUMXUFdLhsOnQ6HpFdMoruw+ysD0a46qKbxUp05DE/5bHf1lvIc/Jh/HMh8jXUS79TUP+q5b8APq2uTqkGhL5ya2qwJzEY472M0c5yFXo6b0YPZwO0tVyHz9w2YE/4JeSUlkF5/ibTAEpLkVWaC9MrBzHQag2622uhu9sWDHHSxXAbHQxwMURX2/VQt14FvWsHkJKdgUflhahABqoekU2YDs7dCcL8PabobrkS6q56GOpigjFORsoMm45O69HLQQvTPYwYybdQVpgHFDBSGcmltLs5WbC8fgr97DehrbMWBjtuxQhrbQxx1kM/bt+Fx+7nqA+LK4eRlZfCNJRJumY6YzpCeRZiHsZDc7892ptqob+LDvp46qMX9zXSSZ/s4YPkfEk9FHQ19XT030vH/7rljwVfAKdgkWe7y0XJQyDqCb54xV1Gtd4lX6g5bVCiUUb4ervoozujcq6vOdz8j2Ev6X3bpYOYtt0Ynax+RG+H1Rjupo1hjlsw1GkrhrjrY7CzPkaw8YfRgToQiEFsYN3z+7Drxgl43DiOn456oIfTZvRxobOwwQfZbsUgV75y2/4OmzDIcRMGumxEJ+sf0cN+Fb4+4gI7brf91gkYXTqAyd7mZCphmbXKjNzB3E9/gjfEYQsjWQ/DXLZCnQ7ZzWwNpnnZwsHvEo5F3MKhKH9su3wK4+yMlVu41BzWo7M4u+06/HDYExHpDU+/rqVIrq1CNdumrq4Gj2QO3n9p+S/kfBF/jWSmTAqjan2c3SLuJmHFEQ/0JghtzVcRKBUYPckEbbaRIu03oJf7VvTzkKnPmxnxjHqZDeuyBQPddZT58X1lgqSbLiNwK9Ts16MLgWprsYbMsgbdHNahL9cZQKAkUuVZALKNOreX+fSDue1gmWnrsllxxK7OG9HObh3aCcvQmeROowG0/lxXXZxIJqDQ5EaNodzfMJqa22b05Pa9eO5dHVYyLX2FNo7foovjGvTmNl3o3F3MfsTiPVZMexFU+Y+7aerYFpUMEGkXZcbUf3H5rwi+povCBrWqNKD6gA1Q/QjXku9g2ent6O28CT1MV2KwPQFhdMlc/wEErJ+jNgbyVR7sIKZMieZ7eVUe9EAQ5bXRBjMiB7s8+RCIptOpG9drfK/6TO4PbPxu6xPfqb5/bPK+8VyGO5NVmM9lGntfgj3IUQej7HUVXdHebjU0DjpgX1wQ5AnnyiJzIpjf5dr/l8v/BPxaSlv5pYf6BoqTXKc0BBslMDkB357fhW7btRVB1oORPJRADrEjI7BxH4P4f8fk4RKDPJkOPHUY+Vpob01t4bgeXxx1xeGEMJQI0Fzkeh/J33LLtFz/z4z4v1n+6+A3XWqY/2VqWC2topI1r0wT4yKaNyLjLhyvnoKGlxk6267GhzY/oo/jRoV+f478/7HJefRz3IxO9lT+zPt9zddglrspjK8ewfXMRJbpdGq5JJrcTCHXVU1qr+ar/LTZY/L/3yz/dfAl4sVkkUhQooENIyaOoHRqyPcNsiC/uhLn4sOhc2I3RrkbKvm6J/NxDwqnfoy6Z6hbbu2mKe8bKFxJD01ShELpDZ81vlescTuaACspYDCP15gKBsr3ckcOj9uTwrQnNYWIxjE8r3Vn9uFUdBjySx6PuEkKr6ulc/MaxcGF3SS3C/M9Up57zw/+h8v/hPZ/zvfPWf5Zc2QXFuBmUgzMLh3GPB8r9KMwbGO+HN3lYQ4UW2oUh71ttCjQNmM41fwIqQYInIg8KbMGOFMgUq2LYu8nesKBILNqGMyycQg/E5Dl5lEp6wa7Udm7k8oJdF8CLDebdifYXUnpQ3jchbstYHbuIM7HRyC3tLjhDBsWXoRcowT9z9fT9MLkbwG+6Wf/g+V/Svu/dWlKk6WVFbiTcQ8nqZ7NrxzHYl8njN69jdGpDTWC1NliJdrbrGIdr4UedlpQs5NyS+4mJpBU+oo6Z65WYyrpw897UVt0oDhrb81tuF13VgxqHnSGHXoY42mIb31dYX7tJA5GByDoYQryZfTqT778acCXSFIeGkX6fCQPHlBuJW5YJIiYVEsKy5D08CFupSWQgkPg6X8R1jdOYuv5A1h1cheWHXLBrN1WGL/dBGMJ6MQd2zCb5deCAw74/rA7jM/5wvHGGfiE++F8YhQC05KQ9jALhRUVzwapHL6Goq26SeXyp1qA/w9EONkERnefpgAAAABJRU5ErkJggg==;" vertex="1" parent="1">
          <mxGeometry x="160" y="182.25" width="77" height="85.49" as="geometry" />
        </mxCell>
      </root>
    </mxGraphModel>
  </diagram>
</mxfile>
